<?xml version="1.0" standalone="no"?>
<!DOCTYPE svg PUBLIC "-//W3C//DTD SVG 1.1//EN" "http://www.w3.org/Graphics/SVG/1.1/DTD/svg11.dtd" >
<svg xmlns="http://www.w3.org/2000/svg" xmlns:xlink="http://www.w3.org/1999/xlink" version="1.1">
<metadata>
Created by FontForge 20230101 at Wed Jun 10 14:40:13 2020
 By Unknown
Copyright \(c\) 2019 by www.fontiran.com All rights reserved.
</metadata>
<defs>
<font id="PeydaWeb-Regular" horiz-adv-x="0" >
  <font-face 
    font-family="PeydaWeb"
    font-weight="400"
    font-stretch="normal"
    units-per-em="1000"
    panose-1="0 0 0 0 0 0 0 0 0 0"
    ascent="800"
    descent="-200"
    x-height="499"
    cap-height="691"
    bbox="-209 -419 1450 1154"
    underline-thickness="50"
    underline-position="-125"
    stemh="76"
    stemv="69"
    unicode-range="U+000D-FEFF"
  />
<missing-glyph horiz-adv-x="250" 
 />
    <glyph glyph-name="uniFEFB" unicode="&#xfedf;&#xfe8e;" horiz-adv-x="527" arabic-form="isolated" 
d="M50 45l109 14l-48 518l68 10l46 -519l92 12c48 7 77 37 77 90v489h69v-488c0 -95 -57 -149 -133 -160l-270 -38z" />
    <glyph glyph-name="uniFEFC" unicode="&#xfee0;&#xfe8e;" horiz-adv-x="579" arabic-form="final" 
d="M50 45l109 14l-49 518l69 10l46 -520l93 12c47 7 77 38 77 91v489h69v-506c0 -51 38 -71 78 -71h37c9 0 14 -5 14 -14v-54c0 -7 -6 -14 -14 -14h-32c-51 0 -94 23 -121 62c-24 -29 -57 -44 -96 -51l-271 -38z" />
    <glyph glyph-name="uniFEF7" unicode="&#xfedf;&#xfe84;" horiz-adv-x="528" arabic-form="isolated" 
d="M61 -27l-10 72l109 14l-48 518l68 10l46 -519l92 12c48 7 77 37 77 90v489h69v-488c0 -95 -57 -149 -133 -160zM55 658l79 37c-3 0 -12 4 -19 17c-1 2 -3 8 -8 17l-10 20c-12 27 -10 41 -10 42c0 37 23 73 59 87l74 31l20 -47l-78 -34c-20 -9 -24 -30 -24 -39
c0 -7 2 -14 5 -20c1 -2 2 -5 5 -10l7 -15c5 -11 12 -23 16 -31l137 72l22 -46l-252 -129z" />
    <glyph glyph-name="uniFEF8" unicode="&#xfee0;&#xfe84;" horiz-adv-x="580" arabic-form="final" 
d="M60 -27l-9 72l109 14l-49 518l69 10l46 -520l93 12c47 7 77 38 77 91v489h69v-506c0 -51 38 -71 78 -71h37c9 0 14 -5 14 -14v-54c0 -7 -6 -14 -14 -14h-32c-51 0 -94 23 -121 62c-24 -29 -57 -44 -96 -51zM86 610l-23 48l79 37c-1 0 -11 2 -18 17c-3 4 -14 29 -18 37
c-12 27 -10 41 -10 43c0 36 22 72 58 86l75 31l19 -47l-78 -35c-19 -9 -23 -29 -23 -38c0 -7 2 -14 5 -21c2 -7 20 -41 28 -54l136 70l23 -45z" />
    <glyph glyph-name="uniFEF9" unicode="&#xfedf;&#xfe88;" horiz-adv-x="527" arabic-form="isolated" 
d="M60 -27l-10 72l109 14l-48 518l68 10l46 -519l92 12c48 7 77 37 77 90v489h69v-488c0 -95 -57 -149 -133 -160zM89 -322c19 9 51 24 78 37l-6 3c-5 3 -9 8 -12 15c-3 3 -14 27 -18 36c-12 27 -10 41 -10 42c0 37 23 72 59 88l74 30l19 -47l-77 -34
c-20 -9 -24 -30 -24 -40c0 -6 1 -13 4 -19c1 -2 3 -5 6 -10l7 -15c5 -11 11 -23 15 -31c31 16 65 33 92 48l45 24l23 -46l-253 -129z" />
    <glyph glyph-name="uniFEFA" unicode="&#xfee0;&#xfe88;" horiz-adv-x="579" arabic-form="final" 
d="M59 -27l-9 72l109 14l-49 518l69 10l46 -520l93 12c47 7 77 38 77 91v489h69v-506c0 -51 38 -71 78 -71h37c9 0 14 -5 14 -14v-54c0 -7 -6 -14 -14 -14h-32c-51 0 -94 23 -121 62c-24 -29 -57 -44 -96 -51zM111 -370l-22 48l78 37c-1 0 -11 3 -19 18c0 1 -13 30 -17 36
c-12 27 -10 41 -10 42c0 37 23 73 59 87l74 31l19 -47l-77 -35c-20 -9 -24 -29 -24 -39c0 -7 1 -13 4 -20c5 -7 20 -41 28 -54l137 71l23 -46z" />
    <glyph glyph-name="uniFEF5" unicode="&#xfedf;&#xfe82;" horiz-adv-x="531" arabic-form="isolated" 
d="M67 -27l-10 72l109 14l-48 518l68 10l46 -519l92 12c48 7 77 37 77 90v489h69v-488c0 -95 -57 -149 -133 -160zM-20 650c0 43 31 78 78 78h190v-61h-195c-11 0 -21 -11 -21 -22v-33h-52v38z" />
    <glyph glyph-name="uniFEF6" unicode="&#xfee0;&#xfe82;" horiz-adv-x="586" arabic-form="final" 
d="M66 -27l-9 72l109 14l-49 518l69 10l46 -520l93 12c47 7 77 38 77 91v489h69v-506c0 -51 38 -71 78 -71h37c9 0 14 -5 14 -14v-54c0 -7 -6 -14 -14 -14h-32c-51 0 -94 23 -121 62c-24 -29 -57 -44 -96 -51zM32 613h-52v38c0 43 30 77 77 77h191v-61h-196
c-11 0 -20 -10 -20 -21v-33z" />
    <glyph glyph-name="uniFDF2" unicode="&#x627;&#xfedf;&#xfee0;&#xfeea;" horiz-adv-x="1256" arabic-form="isolated" 
d="M75 170v65c0 84 50 140 119 159l138 36v84h69v-354c0 -44 39 -78 83 -78h74c40 0 72 33 72 73v281h69v-285c1 -39 33 -69 72 -69h75c40 0 73 33 73 72v400h69v-399c0 -84 -71 -155 -155 -155h-49c-48 0 -91 24 -119 59c-28 -35 -71 -59 -119 -59h-61
c-63 0 -114 37 -138 89c-11 -8 -24 -14 -39 -14h-138c-60 0 -95 35 -95 95zM1124 0v659h69v-659h-69zM144 157h188v198l-123 -32c-39 -11 -65 -50 -65 -89v-77zM536 562c-17 17 -25 38 -25 62v74h47v-74c0 -19 15 -35 34 -35h7c19 0 34 12 38 31l15 71l46 -8l-13 -62
c0 -2 -1 -4 -1 -6c0 -15 17 -26 34 -26h44v113h47v-109c0 -31 -25 -57 -56 -57h-35c-23 0 -43 10 -58 31c-15 -21 -38 -31 -62 -31c-25 0 -45 9 -62 26zM643 876h46v-135h-46v135z" />
    <glyph glyph-name="uniFEB3FBFD" unicode="&#xfeb3;&#xfbfd;" horiz-adv-x="1311" 
d="M75 -15v239h69v-227c0 -72 58 -130 130 -130h185c60 0 108 47 108 107v40l-241 56v85c0 98 75 170 159 181l54 7c7 1 14 1 21 1c42 0 93 -20 124 -67l95 -143c21 -31 49 -52 88 -52c41 0 75 26 82 62l32 159l66 -12l-25 -130c-1 -4 -1 -8 -1 -12c0 -25 23 -67 70 -67h86
v257h69v-250c0 -53 -36 -89 -89 -89h-66c-47 0 -81 22 -104 67c-28 -47 -71 -67 -122 -67c-59 0 -101 28 -142 92l-88 137c-19 29 -50 42 -77 42c-4 0 -7 -1 -11 -1l-67 -8c-52 -5 -89 -56 -89 -107v-27l175 -41c41 -9 70 -44 70 -87v-36c0 -99 -76 -179 -175 -179h-187
c-110 0 -199 91 -199 200z" />
    <glyph glyph-name="uniFEB4FBFD" unicode="&#xfeb4;&#xfbfd;" horiz-adv-x="1358" 
d="M75 224h69v-228c0 -71 57 -130 129 -130h186c60 0 108 50 108 102v5v41l-242 56l1 85c0 97 75 170 158 181l55 7c7 1 14 1 20 1c43 0 94 -21 125 -68l95 -142c23 -31 51 -53 88 -53c41 0 74 26 81 63l31 159l68 -13l-26 -129c-1 -4 -1 -8 -1 -13c0 -12 4 -28 17 -43
c12 -15 33 -24 54 -24h12c40 0 73 32 73 72v186h68v-191c0 -36 34 -66 73 -66h40c8 0 15 -7 15 -16v-52c-1 -9 -6 -14 -15 -14h-28c-48 0 -92 23 -119 67c-27 -45 -65 -67 -113 -67c-45 0 -89 21 -112 66c-27 -45 -69 -66 -120 -66c-57 0 -101 27 -142 91l-88 137
c-19 28 -52 42 -81 42h-8l-67 -9c-51 -5 -88 -54 -88 -106v-27l175 -40c43 -11 70 -45 70 -89v-35c0 -100 -76 -180 -176 -180h-186c-111 0 -199 91 -199 200v240z" />
    <glyph glyph-name="uniFEB7FBFD" unicode="&#xfeb7;&#xfbfd;" horiz-adv-x="1307" 
d="M75 225h69v-228c0 -71 57 -130 129 -130h186c59 0 108 48 108 107v41l-242 57v84c0 97 77 170 159 181l54 8c6 1 12 1 18 1c45 0 97 -21 128 -69l96 -142c19 -31 48 -53 87 -53c41 0 74 27 81 63l32 159l67 -12l-25 -130c-1 -4 -1 -8 -1 -12c0 -33 26 -68 69 -68h87v258
h69v-250c0 -53 -35 -90 -91 -90h-65c-47 0 -81 22 -104 66c-28 -45 -70 -66 -121 -66c-59 0 -101 28 -142 92l-88 137c-19 29 -52 42 -81 42h-8l-67 -9c-50 -5 -86 -54 -86 -105v-28l172 -40c43 -11 71 -45 71 -88v-36c0 -100 -76 -180 -176 -180h-187
c-109 0 -198 91 -198 200v240zM868 421v85h85v-85h-85zM1005 421v85h85v-85h-85zM935 543v85h84v-85h-84z" />
    <glyph glyph-name="uniFEB8FBFD" unicode="&#xfeb8;&#xfbfd;" horiz-adv-x="1357" 
d="M75 224h69v-228c0 -71 57 -130 129 -130h186c59 0 107 48 107 107v41l-240 56v85c0 97 75 170 158 181l55 7c7 1 13 1 20 1c42 0 93 -21 124 -68l96 -142c23 -31 51 -53 88 -53c43 0 75 26 82 63l31 159l67 -13l-25 -129c-1 -5 -1 -9 -1 -13c0 -12 3 -28 16 -43
c12 -15 33 -24 54 -24h12c40 0 73 32 73 72v186h68v-191c0 -36 34 -66 73 -66h40c8 0 15 -7 15 -16v-52c-1 -9 -6 -14 -15 -14h-28c-48 0 -92 23 -119 67c-27 -45 -65 -67 -113 -67c-47 0 -88 21 -111 66c-27 -45 -70 -66 -121 -66c-57 0 -101 27 -142 91l-89 137
c-19 28 -51 42 -80 42h-8l-67 -9c-50 -5 -86 -54 -86 -106v-27l173 -40c41 -11 69 -45 69 -89v-35c0 -100 -75 -180 -175 -180h-186c-111 0 -199 91 -199 200v240zM868 506h85v-85h-85v85zM934 543v85h85v-85h-85zM1090 421h-85v85h85v-85z" />
    <glyph glyph-name="uniFEBBFBFD" unicode="&#xfebb;&#xfbfd;" horiz-adv-x="1392" 
d="M75 -13v239h69v-227c0 -73 56 -130 131 -130h185c60 0 107 48 107 107v40l-241 56v84c0 98 75 173 160 181l70 9c7 1 14 1 20 1c42 0 92 -20 123 -67l88 -134c7 -12 20 -26 28 -35l168 181c39 40 91 64 147 64h61c77 0 140 -63 140 -140v-70c0 -80 -63 -146 -143 -146
h-306c-61 0 -104 30 -144 94l-88 136c-19 31 -51 44 -78 44c-4 0 -7 -1 -11 -1l-80 -9c-51 -5 -90 -56 -90 -106v-29l175 -40c41 -11 69 -44 69 -87v-36c0 -100 -74 -179 -173 -179h-187c-109 0 -200 91 -200 200zM1020 235l-142 -153h319c36 0 65 31 65 67v62
c0 39 -30 69 -69 69h-67c-40 0 -78 -17 -106 -45z" />
    <glyph glyph-name="uniFEBCFBFD" unicode="&#xfebc;&#xfbfd;" horiz-adv-x="1436" 
d="M74 225h69v-228c0 -75 58 -131 131 -131h187c59 0 107 49 107 108v39l-243 57v85c0 96 78 171 162 182l69 9c6 1 12 1 18 1c45 0 98 -21 129 -68c2 -2 64 -100 80 -124c6 -9 27 -37 34 -44l165 179c39 41 92 66 149 66h61c76 0 142 -64 142 -142v-59c0 -39 32 -73 71 -73
h31c9 0 14 -4 14 -13v-56c0 -9 -5 -13 -14 -13h-19c-47 0 -88 21 -115 56c-27 -35 -67 -56 -114 -56h-305c-61 0 -102 28 -143 91l-88 136c-20 31 -54 43 -81 43c-4 0 -8 -1 -12 -1l-78 -8c-48 -5 -91 -54 -91 -105v-29l176 -39c43 -9 71 -44 71 -87v-39
c0 -99 -76 -178 -174 -178h-189c-112 0 -200 90 -200 201v240zM881 82h317c35 0 67 30 67 65v62c0 39 -32 68 -71 68h-67c-43 0 -78 -15 -106 -45z" />
    <glyph glyph-name="uniFEBFFBFD" unicode="&#xfebf;&#xfbfd;" horiz-adv-x="1392" 
d="M75 -13v239h69v-227c0 -73 56 -130 131 -130h185c60 0 107 48 107 107v40l-241 56v84c0 98 75 173 160 181l70 9c7 1 14 1 20 1c42 0 92 -20 123 -67l88 -134c7 -12 20 -26 28 -35l168 181c39 40 91 64 147 64h61c77 0 140 -63 140 -140v-70c0 -80 -63 -146 -143 -146
h-306c-61 0 -104 30 -144 94l-88 136c-19 31 -51 44 -78 44c-4 0 -7 -1 -11 -1l-80 -9c-51 -5 -90 -56 -90 -106v-29l175 -40c41 -11 69 -44 69 -87v-36c0 -100 -74 -179 -173 -179h-187c-109 0 -200 91 -200 200zM1020 235l-142 -153h319c36 0 65 31 65 67v62
c0 39 -30 69 -69 69h-67c-40 0 -78 -17 -106 -45zM1102 557h85v-86h-85v86z" />
    <glyph glyph-name="uniFEC0FBFD" unicode="&#xfec0;&#xfbfd;" horiz-adv-x="1435" 
d="M75 224h69v-228c0 -73 57 -130 130 -130h187c59 0 106 48 106 108v39l-241 57v84c0 97 76 170 161 181l70 9c6 1 12 1 18 1c43 0 95 -20 126 -68c2 -2 65 -101 81 -125c5 -8 27 -35 34 -42l166 179c39 41 91 65 148 65h61c77 0 140 -63 140 -141v-59c0 -39 33 -72 72 -72
h32c9 0 14 -5 14 -14v-54c0 -9 -5 -14 -14 -14h-20c-47 0 -88 21 -115 56c-25 -35 -66 -56 -113 -56h-305c-61 0 -102 28 -142 91l-88 136c-20 31 -54 43 -81 43c-4 0 -7 -1 -11 -1l-78 -8c-51 -5 -91 -54 -91 -106v-29l175 -39c43 -9 70 -44 70 -87v-37
c0 -99 -76 -179 -173 -179h-188c-112 0 -200 90 -200 201v239zM1019 231l-139 -149h317c36 0 65 28 65 64v63c0 39 -30 68 -69 68h-67c-41 0 -80 -17 -107 -46zM1104 471v86h85v-86h-85z" />
    <glyph glyph-name="uniFE92FBFD" unicode="&#xfe92;&#xfbfd;" horiz-adv-x="910" 
d="M75 225h69v-228c0 -73 57 -129 130 -129h185c60 0 107 47 107 107v40l-240 57v84c0 95 75 169 160 180l72 8c7 1 14 1 20 2c41 -1 90 -21 121 -66c11 -15 32 -51 55 -84c12 -19 25 -40 40 -62c20 -31 51 -52 91 -52h25c9 0 14 -5 14 -14v-53c0 -8 -6 -15 -14 -15h-26
c-63 0 -103 29 -146 92l-88 138c-19 31 -52 43 -78 43c-4 0 -9 0 -13 -1l-79 -9c-52 -5 -89 -56 -89 -107v-30l175 -38c41 -11 69 -44 69 -87v-36c0 -99 -76 -179 -174 -179h-186c-109 0 -200 88 -200 200v239zM728 -205v84h84v-84h-84z" />
    <glyph glyph-name="uniFB59FBFD" unicode="&#xfb59;&#xfbfd;" horiz-adv-x="972" 
d="M75 -14v239h69v-228c0 -73 57 -130 130 -130h185c60 0 107 48 107 108v40l-240 57v84c0 95 75 169 160 180l72 8c7 1 14 1 20 2c41 -1 90 -21 121 -66c11 -15 32 -51 55 -84c12 -19 25 -40 40 -62c20 -31 51 -52 91 -52h87c8 0 14 -7 14 -15v-52c0 -8 -6 -15 -14 -15h-88
c-63 0 -103 29 -146 92l-88 138c-19 31 -52 43 -78 43c-4 0 -9 0 -13 -1l-79 -9c-51 -5 -90 -56 -90 -107v-30l176 -38c41 -9 69 -44 69 -87v-36c0 -99 -76 -179 -174 -179h-186c-109 0 -200 88 -200 200zM685 -120h85v-85h-85v85zM755 -327v85h85v-85h-85zM907 -205h-85v85
h85v-85z" />
    <glyph glyph-name="uniFE98FBFD" unicode="&#xfe98;&#xfbfd;" horiz-adv-x="910" 
d="M75 224h69v-227c0 -72 57 -130 130 -130h185c59 0 107 48 107 107v40l-240 57v84c0 93 75 169 160 180l70 9c6 1 12 1 19 1c42 0 93 -19 124 -66l95 -145c19 -31 50 -52 90 -52h26c9 0 14 -5 14 -14v-54c0 -9 -5 -14 -14 -14h-27c-63 0 -104 28 -145 91l-88 137
c-19 31 -52 44 -78 44c-4 0 -9 0 -13 -1l-79 -9c-52 -8 -89 -54 -89 -106v-29l174 -39c43 -9 70 -44 70 -87v-36c0 -100 -75 -180 -174 -180h-186c-112 0 -200 91 -200 200v239zM674 559h85v-85h-85v85zM622 474h-85v85h85v-85z" />
    <glyph glyph-name="uniFE9CFBFD" unicode="&#xfe9c;&#xfbfd;" horiz-adv-x="911" 
d="M77 -15v239h68v-227c0 -73 58 -130 130 -130h185c60 0 107 47 107 107v40l-241 57l1 84c3 93 75 169 159 180l72 9c6 1 12 1 18 1c43 0 93 -19 124 -66l95 -145c20 -31 51 -52 91 -52h25c7 0 14 -6 14 -14v-54c0 -8 -7 -14 -14 -14h-26c-63 0 -105 28 -145 91l-89 137
c-19 31 -51 44 -78 44c-4 0 -9 0 -13 -1l-79 -9c-52 -8 -89 -54 -89 -106v-29l175 -39c41 -9 69 -44 69 -87v-37c0 -99 -75 -179 -174 -179h-186c-110 0 -199 88 -199 200zM623 472h-86v86h86v-86zM690 595h-86v86h86v-86zM675 558h86v-86h-86v86z" />
    <glyph glyph-name="uniFEE8FBFD" unicode="&#xfee8;&#xfbfd;" horiz-adv-x="910" 
d="M75 -14v239h69v-227c0 -72 57 -130 130 -130h185c59 0 107 48 107 107v40l-240 57v84c0 93 75 169 160 180l70 9c6 1 12 1 19 1c42 0 93 -19 124 -66l95 -145c19 -31 50 -52 90 -52h26c9 0 14 -5 14 -14v-54c0 -9 -5 -14 -14 -14h-27c-63 0 -104 28 -145 91l-88 137
c-19 31 -52 44 -78 44c-4 0 -9 0 -13 -1l-79 -9c-52 -8 -89 -54 -89 -106v-29l174 -39c43 -9 70 -44 70 -87v-36c0 -100 -75 -180 -174 -180h-186c-112 0 -200 91 -200 200zM604 474v85h85v-85h-85z" />
    <glyph glyph-name="uniFBFDFE8C" unicode="&#xfe8c;&#xfbfd;" horiz-adv-x="910" 
d="M75 -15v239h69v-228c0 -73 57 -129 130 -129h185c60 0 107 47 107 107v40l-240 57v84c0 95 75 169 160 180l72 8c7 1 14 1 20 2c41 -1 90 -21 121 -66c11 -15 32 -51 55 -84c12 -19 25 -40 40 -62c20 -31 51 -52 91 -52h25c9 0 14 -5 14 -14v-53c0 -8 -6 -15 -14 -15h-26
c-63 0 -103 29 -146 92l-88 138c-19 31 -52 43 -78 43c-4 0 -9 0 -13 -1l-79 -9c-52 -5 -89 -56 -89 -107v-30l175 -38c41 -11 69 -44 69 -87v-36c0 -99 -76 -179 -174 -179h-186c-109 0 -200 88 -200 200zM489 473l77 36c-1 1 -10 3 -17 18c-3 4 -14 29 -18 37
c-12 27 -10 41 -10 42c0 36 23 73 59 87l74 31l19 -47l-77 -35c-20 -9 -24 -29 -24 -38c0 -7 2 -14 5 -21l6 -11c6 -14 17 -35 21 -44l137 71l23 -46l-252 -128z" />
    <glyph glyph-name="uniFBFDFBFF" unicode="&#xfef4;&#xfbfd;" horiz-adv-x="972" 
d="M75 224h69v-227c0 -73 57 -130 130 -130h185c59 0 107 47 107 107v40l-241 57l1 84c0 95 75 169 159 180l71 9c6 1 12 1 19 1c42 0 93 -19 124 -66l95 -145c19 -31 50 -52 90 -52h88c9 0 14 -5 14 -14v-54c0 -9 -5 -14 -14 -14h-89c-63 0 -104 28 -145 91l-88 137
c-19 31 -52 44 -78 44c-4 0 -9 0 -13 -1l-79 -9c-52 -8 -89 -54 -89 -106v-29l174 -39c43 -9 70 -44 70 -87v-37c0 -99 -75 -179 -174 -179h-187c-108 0 -199 88 -199 200v239zM832 -206v85h85v-85h-85zM780 -206h-85v85h85v-85z" />
    <glyph glyph-name="uni0621" unicode="&#x621;" horiz-adv-x="456" arabic-form="isolated" 
d="M68 40l94 47c-3 0 -16 5 -27 25l-18 37c-15 31 -12 47 -12 49c0 43 27 86 69 102l87 36l25 -55l-90 -40c-25 -12 -31 -34 -31 -46c0 -7 2 -14 6 -22c5 -8 23 -47 31 -66l161 84l26 -54l-295 -151z" />
    <glyph glyph-name="uni0627" unicode="&#x627;" horiz-adv-x="209" arabic-form="isolated" 
d="M144 0h-69v659h69v-659z" />
    <glyph glyph-name="uniFE8E" unicode="&#x627;" horiz-adv-x="265" arabic-form="final" 
d="M75 153v506h69v-505c0 -40 33 -72 72 -72h49c8 0 14 -7 14 -15v-53c0 -9 -5 -14 -14 -14h-37c-84 0 -153 69 -153 153z" />
    <glyph glyph-name="uni0623" unicode="&#x623;" horiz-adv-x="215" arabic-form="isolated" 
d="M85 579h69v-579h-69v579zM4 622l-24 47l79 38c-1 1 -11 3 -19 18c-1 3 -13 28 -18 37c-12 27 -10 40 -10 42c0 36 23 72 59 86l75 31l19 -46l-77 -36c-20 -9 -24 -29 -24 -39c0 -6 1 -13 4 -19c1 -2 3 -5 6 -10l7 -15c5 -11 11 -23 15 -30l137 71l23 -46z" />
    <glyph glyph-name="uniFE84" unicode="&#x623;" horiz-adv-x="245" arabic-form="final" 
d="M54 581h69v-428c0 -39 32 -71 72 -71h50c8 0 14 -7 14 -15v-53c0 -9 -5 -14 -14 -14h-38c-85 0 -153 68 -153 153v428zM-20 671l79 36c0 1 -11 3 -18 18c0 1 -13 29 -18 37c-12 27 -10 40 -10 42c0 36 23 72 59 86l75 31l19 -46l-78 -35c-20 -11 -24 -30 -24 -40
c0 -6 2 -13 5 -19l28 -55l137 71l22 -46l-252 -129z" />
    <glyph glyph-name="uni0625" unicode="&#x625;" horiz-adv-x="219" arabic-form="isolated" 
d="M83 659h69v-659h-69v659zM6 -354l-24 47l79 38c-1 1 -11 3 -19 18c-1 3 -13 28 -18 37c-12 27 -10 40 -10 42c0 36 23 72 59 86l75 31l19 -46l-77 -36c-20 -9 -24 -29 -24 -39c0 -6 1 -13 4 -19c1 -2 3 -5 6 -10l7 -15c5 -11 11 -23 15 -30l137 71l23 -46z" />
    <glyph glyph-name="uniFE88" unicode="&#x625;" horiz-adv-x="267" arabic-form="final" 
d="M88 94c-8 19 -12 38 -12 59v487h69v-486c0 -40 32 -72 72 -72h50c8 0 14 -7 14 -15v-53c0 -7 -6 -14 -14 -14h-38c-65 0 -117 39 -141 94zM41 -353l-24 49l79 36c0 1 -11 3 -18 18l-18 36c-12 27 -10 41 -10 43c0 36 22 70 59 86l74 31l19 -47l-77 -35
c-20 -9 -24 -29 -24 -38c0 -7 2 -13 5 -20l28 -56l137 72l22 -47z" />
    <glyph glyph-name="uni0622" unicode="&#x622;" horiz-adv-x="241" arabic-form="isolated" 
d="M94 579h69v-579h-69v579zM-30 642c0 45 31 78 78 78h190v-61h-191c-13 0 -25 -11 -25 -26v-29h-52v38z" />
    <glyph glyph-name="uniFE82" unicode="&#x622;" horiz-adv-x="281" arabic-form="final" 
d="M89 579h69v-426c0 -39 32 -71 72 -71h51c7 0 14 -7 14 -15v-53c0 -8 -7 -14 -14 -14h-39c-85 0 -153 68 -153 153v426zM-23 604v38c0 44 38 78 78 78h190v-61h-191c-13 0 -25 -11 -25 -26v-29h-52z" />
    <glyph glyph-name="uni0671" unicode="&#x671;" horiz-adv-x="319" arabic-form="isolated" 
d="M-18 627h-22v53h27c21 0 37 17 37 37v36h46v-27c0 -13 5 -22 10 -27l88 87c23 23 54 37 85 37h25c45 0 81 -37 81 -82v-32c0 -44 -37 -82 -81 -82h-163c-35 0 -52 11 -68 35c-16 -24 -38 -35 -65 -35zM132 579h69v-579h-69v579zM123 680h160c17 0 31 15 31 32v26
c0 19 -15 34 -34 34h-30c-20 0 -42 -9 -57 -24z" />
    <glyph glyph-name="uniFB51" unicode="&#x671;" horiz-adv-x="309" arabic-form="final" 
d="M-40 680h27c21 0 37 17 37 37v36h46v-27c0 -13 5 -22 10 -27l88 87c23 23 54 37 85 37h25c45 0 81 -37 81 -82v-32c0 -44 -37 -82 -81 -82h-163c-27 0 -49 10 -66 30c-16 -19 -40 -30 -67 -30h-22v53zM118 578h69v-424c0 -41 32 -72 72 -72h50c9 0 14 -5 14 -14v-54
c0 -9 -5 -14 -14 -14h-38c-85 0 -153 68 -153 153v425zM123 680h160c17 0 31 15 31 32v26c0 19 -15 34 -34 34h-30c-21 0 -42 -9 -57 -24z" />
    <glyph glyph-name="uni0628" unicode="&#x628;" horiz-adv-x="849" arabic-form="isolated" 
d="M89 110c-9 21 -14 44 -14 69v159h69v-149c0 -60 48 -107 107 -107h395c40 0 73 32 73 73v183h69v-183c0 -86 -69 -155 -154 -155h-380c-74 0 -137 45 -165 110zM389 -119h85v-85h-85v85z" />
    <glyph glyph-name="uniFE90" unicode="&#x628;" horiz-adv-x="889" arabic-form="final" 
d="M75 179v159h69v-150c0 -59 47 -106 107 -106h395c40 0 72 32 72 72v155h69v-155c0 -40 33 -72 73 -72h29c9 0 14 -5 14 -14v-54c0 -9 -5 -14 -14 -14h-17c-49 0 -91 23 -119 66c-28 -43 -71 -66 -120 -66h-380c-99 0 -178 80 -178 179zM388 -207v85h85v-85h-85z" />
    <glyph glyph-name="uniFE92" unicode="&#x628;" horiz-adv-x="346" arabic-form="medial" 
d="M-14 67c0 8 6 15 14 15h65c39 0 70 27 78 63l31 158l68 -11l-26 -132c-1 -4 -1 -9 -1 -13c0 -11 3 -27 16 -41s33 -24 54 -24h61c8 0 14 -7 14 -15v-53c0 -9 -5 -14 -14 -14h-62c-44 0 -96 29 -107 66c-23 -39 -68 -66 -115 -66h-62c-9 0 -14 5 -14 14v53zM217 -206h-85
v85h85v-85z" />
    <glyph glyph-name="uniFE91" unicode="&#x628;" horiz-adv-x="303" arabic-form="initial" 
d="M-14 67c0 8 6 15 14 15h101c40 0 72 33 72 72v183h69v-184c0 -85 -69 -153 -153 -153h-89c-9 0 -14 5 -14 14v53zM19 -120h85v-85h-85v85z" />
    <glyph glyph-name="uni067E" unicode="&#x67e;" horiz-adv-x="849" arabic-form="isolated" 
d="M75 338h69v-149c0 -60 48 -107 107 -107h395c40 0 73 32 73 73v183h69v-183c0 -86 -69 -155 -154 -155h-380c-99 0 -179 80 -179 179v159zM332 -205v85h85v-85h-85zM402 -327v85h85v-85h-85zM469 -120h85v-85h-85v85z" />
    <glyph glyph-name="uniFB57" unicode="&#x67e;" horiz-adv-x="890" arabic-form="final" 
d="M75 179v159h69v-150c0 -59 48 -106 108 -106h395c40 0 72 32 72 72v155h69v-155c0 -40 33 -72 73 -72h29c9 0 14 -5 14 -14v-54c0 -9 -5 -14 -14 -14h-17c-49 0 -91 23 -119 66c-28 -43 -71 -66 -120 -66h-380c-99 0 -179 80 -179 179zM417 -205h-85v85h85v-85zM487 -327
h-85v85h85v-85zM469 -120h85v-85h-85v85z" />
    <glyph glyph-name="uniFB59" unicode="&#x67e;" horiz-adv-x="346" arabic-form="medial" 
d="M0 0c-9 0 -14 5 -14 14v53c0 8 6 15 14 15h65c39 0 70 27 78 63l31 158l68 -11l-26 -132c-1 -4 -1 -9 -1 -13c0 -11 3 -27 16 -41s33 -24 54 -24h61c8 0 14 -7 14 -15v-53c0 -9 -5 -14 -14 -14h-62c-44 0 -96 29 -107 66c-23 -39 -68 -66 -115 -66h-62zM65 -205v85h85
v-85h-85zM220 -327h-85v85h85v-85zM287 -205h-85v85h85v-85z" />
    <glyph glyph-name="uniFB58" unicode="&#x67e;" horiz-adv-x="333" arabic-form="initial" 
d="M-14 14v53c0 8 6 15 14 15h121c40 0 72 32 72 71v184h69v-184c0 -85 -69 -153 -153 -153h-109c-9 0 -14 5 -14 14zM93 -205h-85v85h85v-85zM163 -327h-85v85h85v-85zM145 -120h85v-85h-85v85z" />
    <glyph glyph-name="uni062A" unicode="&#x62a;" horiz-adv-x="849" arabic-form="isolated" 
d="M89 110c-9 21 -14 44 -14 69v159h69v-149c0 -60 48 -107 107 -107h395c40 0 73 32 73 73v183h69v-183c0 -86 -69 -155 -154 -155h-380c-74 0 -137 45 -165 110zM457 338v85h85v-85h-85zM320 423h85v-85h-85v85z" />
    <glyph glyph-name="uniFE96" unicode="&#x62a;" horiz-adv-x="890" arabic-form="final" 
d="M89 109c-9 21 -14 44 -14 69v159h68v-149c0 -59 49 -106 108 -106h396c40 0 72 32 72 72v155h69v-155c0 -40 32 -72 72 -72h30c9 0 14 -5 14 -14v-54c0 -9 -5 -14 -14 -14h-17c-49 0 -92 23 -119 66c-29 -44 -72 -66 -120 -66h-380c-74 0 -138 44 -165 109zM457 422h85
v-85h-85v85zM320 337v85h85v-85h-85z" />
    <glyph glyph-name="uniFE98" unicode="&#x62a;" horiz-adv-x="346" arabic-form="medial" 
d="M0 0c-9 0 -14 5 -14 14v53c0 8 6 15 14 15h65c39 0 70 27 78 63l31 158l68 -11l-26 -132c-1 -4 -1 -9 -1 -13c0 -11 3 -27 16 -41s33 -24 54 -24h61c8 0 14 -7 14 -15v-53c0 -9 -5 -14 -14 -14h-62c-44 0 -96 29 -107 66c-23 -39 -68 -66 -115 -66h-62zM286 422h-85v85
h85v-85zM64 507h85v-85h-85v85z" />
    <glyph glyph-name="uniFE97" unicode="&#x62a;" horiz-adv-x="323" arabic-form="initial" 
d="M-14 67c0 8 6 15 14 15h121c40 0 72 32 72 71v184h69v-184c0 -85 -69 -153 -153 -153h-109c-9 0 -14 5 -14 14v53zM176 539h85v-85h-85v85zM39 454v85h85v-85h-85z" />
    <glyph glyph-name="uni062B" unicode="&#x62b;" horiz-adv-x="849" arabic-form="isolated" 
d="M89 110c-9 21 -14 44 -14 69v159h69v-149c0 -60 48 -107 107 -107h395c40 0 73 32 73 73v183h69v-183c0 -86 -69 -155 -154 -155h-380c-74 0 -137 45 -165 110zM320 338v85h85v-85h-85zM386 460v85h85v-85h-85zM457 423h85v-85h-85v85z" />
    <glyph glyph-name="uniFE9A" unicode="&#x62b;" horiz-adv-x="890" arabic-form="final" 
d="M75 179v159h69v-150c0 -59 48 -106 108 -106h395c40 0 72 32 72 72v155h69v-155c0 -40 33 -72 73 -72h29c9 0 14 -5 14 -14v-54c0 -9 -5 -14 -14 -14h-17c-49 0 -91 23 -119 66c-28 -43 -71 -66 -120 -66h-380c-99 0 -179 80 -179 179zM320 338v85h85v-85h-85zM387 460
v85h85v-85h-85zM457 338v85h85v-85h-85z" />
    <glyph glyph-name="uniFE9C" unicode="&#x62b;" horiz-adv-x="346" arabic-form="medial" 
d="M0 0c-9 0 -14 5 -14 14v53c0 8 6 15 14 15h65c39 0 70 27 78 63l31 158l68 -11l-26 -132c-1 -4 -1 -9 -1 -13c0 -11 3 -27 16 -41s33 -24 54 -24h61c8 0 14 -7 14 -15v-53c0 -9 -5 -14 -14 -14h-62c-44 0 -96 29 -107 66c-23 -39 -68 -66 -115 -66h-62zM63 421v85h85v-85
h-85zM215 543h-85v85h85v-85zM200 506h85v-85h-85v85z" />
    <glyph glyph-name="uniFE9B" unicode="&#x62b;" horiz-adv-x="319" arabic-form="initial" 
d="M-14 67c0 8 6 15 14 15h116c40 0 71 33 72 72v184h69v-183c0 -86 -69 -155 -154 -155h-103c-8 0 -14 7 -14 15v52zM119 455h-85v85h85v-85zM100 662h85v-85h-85v85zM171 540h85v-85h-85v85z" />
    <glyph glyph-name="uni062C" unicode="&#x62c;" horiz-adv-x="670" arabic-form="isolated" 
d="M137 227l-61 16l23 80c11 35 33 59 61 72s48 12 55 13c11 -1 22 -2 32 -5l363 -109l-21 -63l-56 14c-6 2 -12 3 -17 3c-7 0 -21 -1 -36 -12l-252 -185c-41 -31 -65 -76 -65 -127c0 -92 76 -167 168 -167h235v-82h-235c-132 0 -241 108 -241 240c0 76 37 145 97 189
c57 41 175 129 217 158c9 7 18 14 25 17l-211 62c-4 1 -7 2 -11 2c-15 0 -38 -12 -45 -36zM441 -100h-85v85h85v-85z" />
    <glyph glyph-name="uniFE9E" unicode="&#x62c;" horiz-adv-x="687" arabic-form="final" 
d="M76 243l23 80c11 35 33 59 61 72s48 12 55 13c11 -1 22 -2 32 -5l363 -109l-21 -62l-56 13c-6 1 -12 2 -18 2c-5 0 -18 1 -33 -10v-82c0 -41 33 -73 73 -73h132c9 0 14 -5 14 -14v-54c0 -9 -5 -14 -14 -14h-120c-84 0 -146 68 -146 152v41l-193 -142
c-41 -31 -65 -75 -65 -126c0 -93 76 -168 168 -168h235v-82h-235c-131 0 -241 108 -241 239c0 77 37 146 97 190c56 40 167 121 217 158c7 5 18 13 25 17l-211 62c-4 1 -7 2 -11 2c-15 0 -38 -12 -45 -36l-25 -80zM314 -102v85h85v-85h-85z" />
    <glyph glyph-name="uniFEA0" unicode="&#x62c;" horiz-adv-x="685" arabic-form="medial" 
d="M-14 67c0 7 6 15 14 15h163c64 0 125 21 172 64l88 82c8 7 14 12 18 14l-239 71c-5 2 -10 2 -14 2c-15 0 -36 -9 -44 -33l-26 -80l-60 17l23 79c9 32 31 57 59 72c27 15 48 14 56 14c11 0 23 -2 34 -5l386 -116l-21 -67l-40 12c-8 2 -16 2 -23 3c-14 -1 -32 -4 -52 -20
v-37c0 -40 33 -72 73 -72h132c8 0 14 -7 14 -14v-54c0 -9 -5 -14 -14 -14h-120c-80 0 -136 60 -144 138l-69 -64c-53 -48 -123 -74 -195 -74h-157c-9 0 -14 5 -14 14v53zM275 -205v85h85v-85h-85z" />
    <glyph glyph-name="uniFE9F" unicode="&#x62c;" horiz-adv-x="678" arabic-form="initial" 
d="M-14 68c0 7 5 14 14 14h163c64 0 124 22 171 65l89 81c8 7 14 12 18 14l-240 71c-4 1 -9 2 -13 2c-15 0 -36 -9 -44 -33l-25 -80l-61 16l23 80c9 32 31 56 59 71c27 15 48 15 58 15s21 -2 32 -5l386 -116l-21 -67l-40 12c-9 2 -16 3 -24 3c-19 0 -38 -7 -63 -30
l-116 -106c-53 -51 -124 -75 -196 -75h-156c-9 0 -14 5 -14 14v54zM275 -205v85h85v-85h-85z" />
    <glyph glyph-name="uni0686" unicode="&#x686;" horiz-adv-x="670" arabic-form="isolated" 
d="M137 227l-61 16l23 80c11 35 33 59 61 72s48 12 55 13c11 -1 22 -2 32 -5l363 -109l-21 -63l-56 14c-6 2 -12 3 -17 3c-7 0 -21 -1 -36 -12l-252 -185c-41 -31 -65 -76 -65 -127c0 -92 76 -167 168 -167h235v-82h-235c-132 0 -241 108 -241 240c0 76 37 145 97 189
c57 41 175 129 217 158c9 7 18 14 25 17l-211 62c-4 1 -7 2 -11 2c-15 0 -38 -12 -45 -36zM395 -171v81h80v-81h-80zM537 -55h-80v80h80v-80zM328 -55v80h80v-80h-80z" />
    <glyph glyph-name="uniFB7B" unicode="&#x686;" horiz-adv-x="687" arabic-form="final" 
d="M136 227l-61 16l23 80c11 35 33 59 61 72s48 12 55 13c11 -1 22 -2 32 -5l363 -109l-21 -62l-56 13c-6 1 -12 2 -18 2c-5 0 -18 1 -33 -10v-82c0 -41 33 -73 73 -73h132c9 0 14 -5 14 -14v-54c0 -9 -5 -14 -14 -14h-120c-84 0 -146 68 -146 152v41l-193 -142
c-41 -31 -65 -75 -65 -126c0 -93 76 -168 168 -168h235v-82h-235c-131 0 -241 108 -241 239c0 77 37 146 97 190c56 40 167 121 217 158c7 5 18 13 25 17l-211 62c-4 1 -7 2 -11 2c-15 0 -38 -12 -45 -36zM326 -83h-64v63h64v-63zM365 -83v63h64v-63h-64zM316 -106h63v-63
h-63v63z" />
    <glyph glyph-name="uniFB7D" unicode="&#x686;" horiz-adv-x="685" arabic-form="medial" 
d="M-14 14v53c0 7 6 15 14 15h163c64 0 125 21 172 64l88 82c8 7 14 12 18 14l-239 71c-5 2 -10 2 -14 2c-15 0 -36 -9 -44 -33l-26 -80l-60 17l23 79c9 32 31 57 59 72c27 15 48 14 56 14c11 0 23 -2 34 -5l386 -116l-21 -67l-40 12c-8 2 -16 2 -23 3
c-14 -1 -32 -4 -52 -20v-37c0 -40 33 -72 73 -72h132c8 0 14 -7 14 -14v-54c0 -9 -5 -14 -14 -14h-120c-80 0 -136 60 -144 138l-69 -64c-53 -48 -123 -74 -195 -74h-157c-9 0 -14 5 -14 14zM205 -120h85v-85h-85v85zM276 -242h85v-85h-85v85zM342 -120h85v-85h-85v85z" />
    <glyph glyph-name="uniFB7C" unicode="&#x686;" horiz-adv-x="677" arabic-form="initial" 
d="M0 0c-9 0 -14 5 -14 14v54c0 7 5 14 14 14h163c64 0 124 22 171 65l89 81c8 7 14 12 18 14l-240 71c-4 1 -9 2 -13 2c-15 0 -36 -9 -44 -33l-25 -80l-61 16l23 80c9 32 31 56 59 71c27 15 48 15 58 15s21 -2 32 -5l386 -116l-21 -67l-40 12c-9 2 -16 3 -24 3
c-19 0 -38 -7 -63 -30l-116 -106c-53 -51 -124 -75 -196 -75h-156zM292 -205h-85v85h85v-85zM277 -242h85v-85h-85v85zM344 -205v85h85v-85h-85z" />
    <glyph glyph-name="uni062D" unicode="&#x62d;" horiz-adv-x="670" arabic-form="isolated" 
d="M136 226l-61 16l23 80c11 35 33 59 61 72s48 12 55 13c11 -1 22 -2 32 -5l363 -109l-21 -63l-56 14c-6 2 -12 3 -17 3c-7 0 -21 -1 -36 -12l-252 -185c-41 -31 -65 -76 -65 -127c0 -92 76 -167 168 -167h235v-82h-235c-132 0 -241 108 -241 240c0 76 37 145 97 189
c57 41 175 129 217 158c9 7 18 14 25 17l-211 62c-4 1 -7 2 -11 2c-15 0 -38 -12 -45 -36z" />
    <glyph glyph-name="uniFEA2" unicode="&#x62d;" horiz-adv-x="687" arabic-form="final" 
d="M136 227l-61 16l23 80c11 35 33 59 61 72s48 12 55 13c11 -1 22 -2 32 -5l363 -109l-21 -62l-56 13c-6 1 -12 2 -18 2c-5 0 -18 1 -33 -10v-82c0 -41 33 -73 73 -73h132c9 0 14 -5 14 -14v-54c0 -9 -5 -14 -14 -14h-120c-84 0 -146 68 -146 152v41l-193 -142
c-41 -31 -65 -75 -65 -126c0 -93 76 -168 168 -168h235v-82h-235c-131 0 -241 108 -241 239c0 77 37 146 97 190c56 40 167 121 217 158c7 5 18 13 25 17l-211 62c-4 1 -7 2 -11 2c-15 0 -38 -12 -45 -36z" />
    <glyph glyph-name="uniFEA4" unicode="&#x62d;" horiz-adv-x="685" arabic-form="medial" 
d="M-14 67c0 7 6 15 14 15h163c64 0 125 21 172 64l88 82c8 7 14 12 18 14l-239 71c-5 2 -10 2 -14 2c-15 0 -36 -9 -44 -33l-26 -80l-60 17l23 79c9 32 31 57 59 72c27 15 48 14 56 14c11 0 23 -2 34 -5l386 -116l-21 -67l-40 12c-8 2 -16 2 -23 3c-14 -1 -32 -4 -52 -20
v-37c0 -40 33 -72 73 -72h132c8 0 14 -7 14 -14v-54c0 -9 -5 -14 -14 -14h-120c-80 0 -136 60 -144 138l-69 -64c-53 -48 -123 -74 -195 -74h-157c-9 0 -14 5 -14 14v53z" />
    <glyph glyph-name="uniFEA3" unicode="&#x62d;" horiz-adv-x="677" arabic-form="initial" 
d="M-14 68c0 7 5 14 14 14h163c64 0 124 22 171 65l89 81c8 7 14 12 18 14l-240 71c-4 1 -9 2 -13 2c-15 0 -36 -9 -44 -33l-25 -80l-61 16l23 80c9 32 31 56 59 71c27 15 48 15 58 15s21 -2 32 -5l386 -116l-21 -67l-40 12c-9 2 -16 3 -24 3c-19 0 -38 -7 -63 -30
l-116 -106c-53 -51 -124 -75 -196 -75h-156c-9 0 -14 5 -14 14v54z" />
    <glyph glyph-name="uni062E" unicode="&#x62e;" horiz-adv-x="671" arabic-form="isolated" 
d="M75 243l23 79c11 35 34 60 62 73s48 12 55 13c11 -1 22 -2 32 -5l363 -109l-21 -63l-56 14c-6 2 -13 3 -18 3c-13 0 -25 -4 -35 -12l-253 -185c-40 -31 -64 -76 -64 -127c0 -92 75 -167 168 -167h235v-81h-235c-132 0 -241 108 -241 239c1 76 37 145 97 188
c42 32 120 88 173 128c37 27 54 40 69 47l-211 62c-4 1 -7 2 -11 2c-15 0 -38 -12 -45 -35l-26 -80zM161 526v85h85v-85h-85z" />
    <glyph glyph-name="uniFEA6" unicode="&#x62e;" horiz-adv-x="687" arabic-form="final" 
d="M76 243l23 80c11 35 33 59 61 72s48 12 55 13c11 -1 22 -2 32 -5l363 -109l-21 -62l-56 13c-6 1 -12 2 -18 2c-5 0 -18 1 -33 -10v-82c0 -41 33 -73 73 -73h132c9 0 14 -5 14 -14v-54c0 -9 -5 -14 -14 -14h-120c-84 0 -146 68 -146 152v41l-193 -142
c-41 -31 -65 -75 -65 -126c0 -93 76 -168 168 -168h235v-82h-235c-131 0 -241 108 -241 239c0 77 37 146 97 190c56 40 167 121 217 158c7 5 18 13 25 17l-211 62c-4 1 -7 2 -11 2c-15 0 -38 -12 -45 -36l-25 -80zM162 526v85h85v-85h-85z" />
    <glyph glyph-name="uniFEA8" unicode="&#x62e;" horiz-adv-x="685" arabic-form="medial" 
d="M-14 14v53c0 7 6 15 14 15h163c64 0 125 21 172 64l88 82c8 7 14 12 18 14l-239 71c-5 2 -10 2 -14 2c-15 0 -36 -9 -44 -33l-26 -80l-60 17l23 79c9 32 31 57 59 72c27 15 48 14 56 14c11 0 23 -2 34 -5l386 -116l-21 -67l-40 12c-8 2 -16 2 -23 3
c-14 -1 -32 -4 -52 -20v-37c0 -40 33 -72 73 -72h132c8 0 14 -7 14 -14v-54c0 -9 -5 -14 -14 -14h-120c-80 0 -136 60 -144 138l-69 -64c-53 -48 -123 -74 -195 -74h-157c-9 0 -14 5 -14 14zM152 586h85v-85h-85v85z" />
    <glyph glyph-name="uniFEA7" unicode="&#x62e;" horiz-adv-x="677" arabic-form="initial" 
d="M-14 68c0 7 5 14 14 14h163c64 0 124 22 171 65l89 81c8 7 14 12 18 14l-240 71c-4 1 -9 2 -13 2c-15 0 -36 -9 -44 -33l-25 -80l-61 16l23 80c9 32 31 56 59 71c27 15 48 15 58 15s21 -2 32 -5l386 -116l-21 -67l-40 12c-9 2 -16 3 -24 3c-19 0 -38 -7 -63 -30
l-116 -106c-53 -51 -124 -75 -196 -75h-156c-9 0 -14 5 -14 14v54zM152 586h85v-85h-85v85z" />
    <glyph glyph-name="uni062F" unicode="&#x62f;" horiz-adv-x="548" arabic-form="isolated" 
d="M75 215h59v-91c0 -23 13 -42 40 -42h157c61 0 85 44 85 81c0 3 2 20 -11 44l-115 205l58 39l114 -204c16 -28 25 -57 25 -86c0 -1 6 -34 -20 -81s-77 -80 -140 -80h-144c-60 0 -108 49 -108 109v106z" />
    <glyph glyph-name="uniFEAA" unicode="&#x62f;" horiz-adv-x="582" arabic-form="final" 
d="M75 214h59v-88c0 -24 13 -44 40 -44h146c28 0 51 13 67 33c15 20 17 39 17 50c0 7 -1 14 -3 21l-74 269l65 24l95 -340c9 -33 39 -57 74 -57h21c8 0 14 -7 14 -15v-53c0 -9 -5 -14 -14 -14h-19c-51 0 -94 27 -119 75c-27 -48 -74 -75 -125 -75h-137
c-59 0 -107 49 -107 108v106z" />
    <glyph glyph-name="uni0630" unicode="&#x630;" horiz-adv-x="548" arabic-form="isolated" 
d="M75 109v106h59v-91c0 -23 13 -42 40 -42h157c61 0 85 44 85 81c0 3 2 20 -11 44l-115 205l58 39l114 -204c16 -28 25 -57 25 -86c0 -1 6 -34 -20 -81s-77 -80 -140 -80h-144c-60 0 -108 49 -108 109zM314 570h-85v85h85v-85z" />
    <glyph glyph-name="uniFEAC" unicode="&#x630;" horiz-adv-x="582" arabic-form="final" 
d="M75 108v106h59v-88c0 -24 13 -44 40 -44h146c28 0 51 13 67 33c15 20 17 39 17 50c0 7 -1 14 -3 21l-74 269l65 24l95 -340c9 -33 39 -57 74 -57h21c8 0 14 -7 14 -15v-53c0 -9 -5 -14 -14 -14h-19c-51 0 -94 27 -119 75c-27 -48 -74 -75 -125 -75h-137
c-59 0 -107 49 -107 108zM298 596v85h85v-85h-85z" />
    <glyph glyph-name="uni0631" unicode="&#x631;" horiz-adv-x="320" arabic-form="isolated" 
d="M-18 -249l-22 68l122 40c56 19 95 73 95 133v317h68v-311c0 -94 -59 -176 -148 -208z" />
    <glyph glyph-name="uniFEAE" unicode="&#x631;" horiz-adv-x="418" arabic-form="final" 
d="M-40 -181l121 40c59 19 96 73 96 133v316h69v-157c0 -39 33 -69 72 -69h100c8 0 14 -7 14 -15v-53c0 -9 -5 -14 -14 -14h-88c-32 0 -65 13 -84 40v-44c0 -94 -61 -176 -150 -206l-114 -40z" />
    <glyph glyph-name="uni0632" unicode="&#x632;" horiz-adv-x="328" arabic-form="isolated" 
d="M-40 -181l122 40c56 19 95 73 95 133v317h68v-311c0 -94 -59 -176 -148 -208l-115 -39zM168 511h85v-85h-85v85z" />
    <glyph glyph-name="uniFEB0" unicode="&#x632;" horiz-adv-x="422" arabic-form="final" 
d="M-40 -181l121 40c59 19 96 73 96 133v316h69v-157c0 -39 33 -69 72 -69h104c8 0 14 -7 14 -15v-53c0 -9 -5 -14 -14 -14h-92c-32 0 -65 13 -84 40v-44c0 -94 -61 -176 -150 -206l-114 -40zM168 511h85v-85h-85v85z" />
    <glyph glyph-name="uni0698" unicode="&#x698;" horiz-adv-x="357" arabic-form="isolated" 
d="M-18 -249l-22 68l122 40c56 19 95 73 95 133v317h68v-311c0 -94 -59 -176 -148 -208zM185 428h-85v85h85v-85zM251 550h-85v85h85v-85zM237 513h85v-85h-85v85z" />
    <glyph glyph-name="uniFB8B" unicode="&#x698;" horiz-adv-x="422" arabic-form="final" 
d="M-18 -250l-22 69l121 40c59 19 96 73 96 133v316h69v-157c0 -39 33 -69 72 -69h104c8 0 14 -7 14 -15v-53c0 -9 -5 -14 -14 -14h-92c-32 0 -65 13 -84 40v-44c0 -94 -61 -176 -150 -206zM99 427v85h85v-85h-85zM165 634h85v-85h-85v85zM236 512h85v-85h-85v85z" />
    <glyph glyph-name="uni0633" unicode="&#x633;" horiz-adv-x="1153" arabic-form="isolated" 
d="M75 26v267h69v-256c0 -72 59 -129 131 -129h174c60 0 109 48 109 108v294h69v-157c0 -40 32 -71 72 -71h17c39 0 71 26 78 63l32 158l67 -11l-25 -128c-1 -4 -1 -8 -1 -13c0 -25 23 -69 69 -69h87v257h69v-249c0 -55 -35 -90 -90 -90h-66c-45 0 -84 22 -108 66
c-27 -45 -68 -66 -115 -66c-31 0 -63 9 -87 40v-42c0 -96 -81 -172 -178 -172h-172c-111 0 -201 88 -201 200z" />
    <glyph glyph-name="uniFEB2" unicode="&#x633;" horiz-adv-x="1204" arabic-form="final" 
d="M75 26v267h69v-256c0 -72 59 -129 131 -129h172c61 0 109 48 109 109v293h69v-156c0 -40 34 -73 73 -73h18c39 0 71 26 78 65l32 157l67 -11l-26 -132c0 -3 -1 -7 -1 -10c0 -34 27 -68 70 -68h14c40 0 72 32 72 72v185h69v-190c0 -35 34 -67 73 -67h40c9 0 14 -5 14 -14
v-53c0 -8 -6 -15 -14 -15h-28c-49 0 -92 23 -119 66c-29 -43 -73 -66 -120 -66s-86 23 -109 66c-27 -45 -68 -66 -115 -66c-31 0 -64 9 -88 40v-42c0 -95 -80 -172 -177 -172h-172c-111 0 -201 88 -201 200z" />
    <glyph glyph-name="uniFEB4" unicode="&#x633;" horiz-adv-x="760" arabic-form="medial" 
d="M-14 14v54c0 8 7 14 14 14h40c40 0 73 32 73 72v156h69v-158c0 -39 33 -70 72 -70h18c39 0 72 25 79 64l30 157l69 -11l-27 -132c-1 -4 -1 -8 -1 -12c0 -25 23 -66 74 -66h10c40 0 72 32 72 72v185h69v-190c3 -39 34 -67 73 -67h40c7 0 14 -6 14 -14v-54
c0 -7 -6 -14 -14 -14h-28c-49 0 -92 22 -119 66c-28 -44 -72 -66 -120 -66c-45 0 -88 19 -109 66c-27 -45 -71 -66 -116 -66c-49 0 -92 22 -120 66c-28 -44 -71 -66 -120 -66h-28c-8 0 -14 7 -14 14z" />
    <glyph glyph-name="uniFEB3" unicode="&#x633;" horiz-adv-x="707" arabic-form="initial" 
d="M-14 14v54c0 8 7 14 14 14h41c40 0 72 32 72 72v156h69v-157c0 -40 32 -71 71 -71h18c39 0 71 26 78 63l32 158l67 -12l-26 -131c-1 -5 -1 -9 -1 -14c0 -31 27 -64 70 -64h86v256h69v-248c0 -55 -37 -90 -90 -90h-66c-44 0 -88 23 -108 66c-27 -45 -70 -66 -117 -66
c-48 0 -91 22 -118 66c-27 -44 -70 -66 -118 -66h-29c-9 0 -14 5 -14 14z" />
    <glyph glyph-name="uni0634" unicode="&#x634;" horiz-adv-x="1153" arabic-form="isolated" 
d="M75 293h69v-256c0 -72 59 -129 131 -129h174c60 0 109 48 109 108v294h69v-157c0 -40 32 -71 72 -71h17c39 0 71 26 78 63l32 158l67 -11l-25 -128c-1 -4 -1 -8 -1 -13c0 -25 23 -69 69 -69h87v257h69v-249c0 -55 -35 -90 -90 -90h-66c-45 0 -84 22 -108 66
c-27 -45 -68 -66 -115 -66c-31 0 -63 9 -87 40v-42c0 -96 -81 -172 -178 -172h-172c-111 0 -201 88 -201 200v267zM715 422v85h85v-85h-85zM865 544h-85v85h85v-85zM937 422h-85v85h85v-85z" />
    <glyph glyph-name="uniFEB6" unicode="&#x634;" horiz-adv-x="1204" arabic-form="final" 
d="M75 293h69v-256c0 -72 58 -129 130 -129h173c61 0 109 48 109 109v293h69v-156c0 -40 34 -72 73 -72h18c39 0 71 25 78 64l32 157l67 -11l-26 -132c0 -3 -1 -7 -1 -10c0 -34 27 -68 70 -68h14c40 0 72 32 72 72v185h69v-190c0 -35 34 -67 73 -67h40c9 0 14 -5 14 -14v-53
c0 -8 -6 -15 -14 -15h-28c-49 0 -92 23 -119 66c-29 -43 -73 -66 -120 -66s-86 23 -109 66c-27 -45 -67 -66 -114 -66c-31 0 -65 9 -89 40v-42c0 -95 -80 -172 -177 -172h-173c-109 0 -200 88 -200 200v267zM799 421h-85v85h85v-85zM865 543h-85v85h85v-85zM851 506h85v-85
h-85v85z" />
    <glyph glyph-name="uniFEB8" unicode="&#x634;" horiz-adv-x="761" arabic-form="medial" 
d="M-14 14v54c0 8 7 14 14 14h41c40 0 73 32 73 72v156h69v-159c0 -39 33 -70 72 -70h18c39 0 72 26 79 65l30 157l69 -11l-26 -132c-1 -5 -1 -10 -1 -14c0 -12 3 -28 16 -42s34 -23 57 -23h10c40 0 72 33 72 73v185h69v-190c3 -39 34 -67 73 -67h40c7 0 14 -6 14 -14v-54
c0 -7 -6 -14 -14 -14h-28c-49 0 -92 22 -119 66c-28 -44 -72 -66 -119 -66s-89 19 -110 66c-27 -45 -71 -66 -116 -66c-49 0 -92 22 -120 66c-28 -44 -71 -66 -120 -66h-29c-8 0 -14 7 -14 14zM272 507h85v-85h-85v85zM337 629h85v-85h-85v85zM494 422h-85v85h85v-85z" />
    <glyph glyph-name="uniFEB7" unicode="&#x634;" horiz-adv-x="709" arabic-form="initial" 
d="M-11 4c-2 2 -3 5 -3 8v2v54c0 9 5 14 14 14h41c40 0 73 32 73 73v155h69v-157c0 -40 32 -71 72 -71h17c39 0 70 25 78 64l31 157l69 -11l-27 -132c-1 -4 -1 -8 -1 -12c0 -25 23 -66 70 -66h86v257h69v-249c0 -55 -35 -90 -90 -90h-65c-45 0 -88 23 -108 66
c-28 -45 -70 -66 -117 -66c-49 0 -92 23 -119 66c-28 -43 -71 -66 -119 -66h-29c-4 0 -8 1 -11 4zM357 421h-85v85h85v-85zM423 543h-85v85h85v-85zM409 506h85v-85h-85v85z" />
    <glyph glyph-name="uni0635" unicode="&#x635;" horiz-adv-x="1222" arabic-form="isolated" 
d="M75 293h69v-255c0 -73 58 -131 130 -131h174c61 0 110 49 110 109v293h68v-138c0 -23 5 -37 12 -46c3 -5 7 -9 12 -12l162 177c39 40 92 64 148 64h61c77 0 140 -63 140 -140v-70c0 -79 -63 -144 -143 -144h-272c-56 0 -100 10 -120 39v-40c0 -97 -81 -174 -178 -174
h-173c-109 0 -200 91 -200 200v268zM711 82h316c36 0 65 26 65 65v62c0 39 -30 69 -69 69h-67c-44 0 -78 -17 -105 -46z" />
    <glyph glyph-name="uniFEBA" unicode="&#x635;" horiz-adv-x="1265" arabic-form="final" 
d="M75 294h69v-256c0 -72 58 -130 130 -130h173c61 0 110 48 110 109v293h69v-139c0 -23 5 -37 12 -46c3 -5 7 -9 11 -12l162 178c39 40 92 63 148 63h61c78 0 141 -63 141 -140v-60c0 -40 32 -72 72 -72h32c7 0 14 -7 14 -15v-53c0 -7 -6 -14 -14 -14h-20
c-48 0 -89 23 -116 63c-27 -40 -65 -63 -112 -63h-272c-64 0 -99 14 -120 39v-40c0 -96 -81 -173 -178 -173h-172c-112 0 -200 91 -200 200v268zM850 232l-140 -150h317c35 0 65 29 65 65v62c0 39 -30 69 -69 69h-68c-40 0 -77 -17 -105 -46z" />
    <glyph glyph-name="uniFEBC" unicode="&#x635;" horiz-adv-x="824" arabic-form="medial" 
d="M-14 15v53c0 8 7 14 14 14h43c41 0 73 31 73 71v139h69v-129c0 -31 12 -46 18 -49l3 -3l165 179c37 40 91 64 147 64h62c77 0 140 -63 140 -140v-66c0 -39 33 -66 72 -66h32c7 0 14 -6 14 -14v-54c0 -7 -6 -14 -14 -14h-20c-48 0 -90 22 -117 65
c-26 -43 -63 -65 -111 -65h-306c-53 0 -99 18 -122 66c-28 -44 -69 -66 -117 -66h-31c-7 0 -14 6 -14 15zM408 232l-141 -150h318c37 0 66 29 66 65v62c0 39 -31 69 -70 69h-67c-40 0 -79 -17 -106 -46z" />
    <glyph glyph-name="uniFEBB" unicode="&#x635;" horiz-adv-x="781" arabic-form="initial" 
d="M-14 15v52c0 8 6 15 14 15h43c40 0 73 32 73 72v139h69v-121c0 -34 12 -49 20 -55l3 -3l162 176c39 41 92 65 148 65h61c77 0 140 -63 140 -140v-71c0 -79 -63 -144 -143 -144h-304c-48 0 -104 23 -123 66c-27 -43 -70 -66 -119 -66h-30c-8 0 -14 7 -14 15zM409 232
l-140 -150h316c36 0 65 26 65 65v63c0 39 -29 69 -68 69h-68c-44 0 -78 -16 -105 -47z" />
    <glyph glyph-name="uni0636" unicode="&#x636;" horiz-adv-x="1222" arabic-form="isolated" 
d="M91 -53c-11 25 -16 51 -16 78v268h69v-255c0 -73 58 -131 130 -131h174c61 0 110 49 110 109v293h68v-138c0 -23 5 -37 12 -46c3 -5 7 -9 12 -12l162 177c39 40 92 64 148 64h61c77 0 140 -63 140 -140v-70c0 -79 -63 -144 -143 -144h-272c-56 0 -100 10 -120 39v-40
c0 -97 -81 -174 -178 -174h-173c-83 0 -153 52 -184 122zM711 82h316c36 0 65 26 65 65v62c0 39 -30 69 -69 69h-67c-44 0 -78 -17 -105 -46zM918 557h85v-85h-85v85z" />
    <glyph glyph-name="uniFEBE" unicode="&#x636;" horiz-adv-x="1265" arabic-form="final" 
d="M75 294h69v-256c0 -72 58 -130 130 -130h173c61 0 110 48 110 109v293h69v-139c0 -23 5 -37 12 -46c3 -5 7 -9 11 -12l162 178c39 40 92 63 148 63h61c78 0 141 -63 141 -140v-60c0 -40 32 -72 72 -72h32c7 0 14 -7 14 -15v-53c0 -7 -6 -14 -14 -14h-20
c-48 0 -89 23 -116 63c-27 -40 -65 -63 -112 -63h-272c-64 0 -99 14 -120 39v-40c0 -96 -81 -173 -178 -173h-172c-112 0 -200 91 -200 200v268zM850 232l-140 -150h317c35 0 65 29 65 65v62c0 39 -30 69 -69 69h-68c-40 0 -77 -17 -105 -46zM1002 472h-85v85h85v-85z" />
    <glyph glyph-name="uniFEC0" unicode="&#x636;" horiz-adv-x="824" arabic-form="medial" 
d="M-14 15v53c0 8 7 14 14 14h43c41 0 73 31 73 71v139h69v-129c0 -31 12 -46 18 -49l3 -3l165 179c37 40 91 64 147 64h62c77 0 140 -63 140 -140v-66c0 -39 33 -66 72 -66h32c7 0 14 -6 14 -14v-54c0 -7 -6 -14 -14 -14h-20c-48 0 -90 22 -117 65
c-26 -43 -63 -65 -111 -65h-306c-53 0 -99 18 -122 66c-28 -44 -69 -66 -117 -66h-31c-7 0 -14 6 -14 15zM408 232l-141 -150h318c37 0 66 29 66 65v62c0 39 -31 69 -70 69h-67c-40 0 -79 -17 -106 -46zM484 557h85v-85h-85v85z" />
    <glyph glyph-name="uniFEBF" unicode="&#x636;" horiz-adv-x="781" arabic-form="initial" 
d="M-14 15v52c0 8 6 15 14 15h43c40 0 73 32 73 72v139h69v-121c0 -34 12 -49 20 -55l3 -3l162 176c39 41 92 65 148 65h61c77 0 140 -63 140 -140v-71c0 -79 -63 -144 -143 -144h-319c-48 0 -89 23 -108 66c-27 -43 -70 -66 -119 -66h-30c-8 0 -14 7 -14 15zM409 232
l-140 -150h316c36 0 66 26 66 65v63c0 39 -30 69 -69 69h-68c-44 0 -78 -16 -105 -47zM570 473h-85v85h85v-85z" />
    <glyph glyph-name="uni0637" unicode="&#x637;" horiz-adv-x="734" arabic-form="isolated" 
d="M75 0v82h55l111 119v458h68v-351c0 -21 -6 -40 -6 -41l5 5c7 7 20 22 22 24c37 37 88 58 141 58h61c77 0 140 -63 140 -140v-70c0 -79 -63 -144 -143 -144h-454zM361 232l-141 -150h318c36 0 65 29 65 64v63c0 39 -29 69 -68 69h-68c-41 0 -78 -17 -106 -46z" />
    <glyph glyph-name="uniFEC2" unicode="&#x637;" horiz-adv-x="779" arabic-form="final" 
d="M529 0h-454v82h55l111 119v458h69v-350c0 -11 -1 -20 -3 -28c-1 -7 -3 -12 -4 -13l13 13c5 5 12 13 16 17c36 36 86 56 139 56h62c77 0 140 -62 140 -139v-61c0 -41 33 -72 73 -72h33c7 0 14 -6 14 -14v-54c0 -7 -7 -14 -14 -14h-21c-48 0 -90 23 -117 64
c-27 -41 -65 -64 -112 -64zM220 82h318c37 0 66 29 66 65v62c0 39 -30 69 -69 69h-68c-40 0 -78 -16 -106 -45z" />
    <glyph glyph-name="uniFEC4" unicode="&#x637;" horiz-adv-x="713" arabic-form="medial" 
d="M-14 14v54c0 9 5 14 14 14h64l111 119v458h69v-350c0 -11 -1 -20 -3 -28c-1 -7 -3 -12 -4 -13l13 13c5 5 12 13 16 17c36 36 86 56 139 56h62c77 0 140 -62 140 -139v-61c0 -41 33 -72 73 -72h33c7 0 14 -6 14 -14v-54c0 -7 -7 -14 -14 -14h-21c-48 0 -90 21 -117 64
c-27 -43 -64 -64 -112 -64h-463c-9 0 -14 5 -14 14zM295 233l-141 -151h318c37 0 66 29 66 65v62c0 39 -30 69 -69 69h-68c-40 0 -78 -16 -106 -45z" />
    <glyph glyph-name="uniFEC3" unicode="&#x637;" horiz-adv-x="668" arabic-form="initial" 
d="M-14 68c0 8 7 14 14 14h65l111 119v458h68v-351c0 -11 -1 -21 -3 -28c-1 -5 -2 -9 -3 -13l5 5c7 7 20 22 22 24c37 37 88 58 141 58h61c77 0 140 -63 140 -140v-70c0 -79 -63 -144 -143 -144h-464c-7 0 -14 7 -14 14v54zM155 82h318c36 0 65 29 65 64v63
c0 39 -29 69 -68 69h-68c-41 0 -78 -17 -106 -46z" />
    <glyph glyph-name="uni0638" unicode="&#x638;" horiz-adv-x="734" arabic-form="isolated" 
d="M75 82h55l111 119v458h68v-351c0 -11 -1 -21 -3 -28c-1 -5 -2 -9 -3 -13l13 13c5 5 11 12 15 16c36 37 87 58 140 58h61c77 0 140 -63 140 -140v-70c0 -79 -63 -144 -143 -144h-454v82zM220 82h318c36 0 66 28 66 64v63c0 39 -30 69 -69 69h-68c-41 0 -78 -17 -106 -46z
M442 472v85h85v-85h-85z" />
    <glyph glyph-name="uniFEC6" unicode="&#x638;" horiz-adv-x="779" arabic-form="final" 
d="M529 0h-454v82h55l111 119v458h69v-350c0 -11 -1 -20 -3 -28c-1 -7 -3 -12 -4 -13l13 13c5 5 12 13 16 17c36 36 86 56 139 56h62c77 0 140 -62 140 -139v-61c0 -41 33 -72 73 -72h33c7 0 14 -6 14 -14v-54c0 -7 -7 -14 -14 -14h-21c-48 0 -90 23 -117 64
c-27 -41 -65 -64 -112 -64zM220 82h318c37 0 66 29 66 65v62c0 39 -30 69 -69 69h-68c-40 0 -78 -16 -106 -45zM442 557h85v-85h-85v85z" />
    <glyph glyph-name="uniFEC8" unicode="&#x638;" horiz-adv-x="713" arabic-form="medial" 
d="M0 0c-9 0 -14 5 -14 14v54c0 9 5 14 14 14h64l111 119v458h69v-350c0 -11 -1 -20 -3 -28c-1 -7 -3 -12 -4 -13l13 13c5 5 12 13 16 17c36 36 86 56 139 56h62c77 0 140 -62 140 -139v-61c0 -41 33 -72 73 -72h33c7 0 14 -6 14 -14v-54c0 -7 -7 -14 -14 -14h-21
c-48 0 -90 21 -117 64c-27 -43 -64 -64 -112 -64h-463zM154 82h318c37 0 66 29 66 65v62c0 39 -30 69 -69 69h-68c-40 0 -78 -16 -106 -45zM375 557h85v-85h-85v85z" />
    <glyph glyph-name="uniFEC7" unicode="&#x638;" horiz-adv-x="668" arabic-form="initial" 
d="M-14 68c0 9 5 14 14 14h64l111 119v458h68v-351c0 -11 -1 -21 -3 -28c-1 -5 -2 -9 -3 -13c3 3 24 26 27 29c37 37 88 58 141 58h61c77 0 140 -63 140 -140v-70c0 -79 -63 -144 -143 -144h-463c-9 0 -14 5 -14 14v54zM154 82h318c36 0 65 28 65 64v63c0 39 -29 69 -68 69
h-68c-41 0 -78 -17 -106 -46zM375 472v85h85v-85h-85z" />
    <glyph glyph-name="uni0639" unicode="&#x639;" horiz-adv-x="566" arabic-form="isolated" 
d="M94 -275c-13 29 -19 59 -19 90c0 64 33 135 94 179c-10 11 -16 24 -19 40l-31 156c-2 9 -3 18 -3 26c0 22 6 53 30 82s61 48 102 48h144v-76h-150c-39 0 -57 -38 -57 -57c0 -4 0 -8 1 -12l36 -182c23 7 81 26 136 43c32 10 66 21 103 33l20 -63l-233 -73
c-44 -14 -100 -53 -100 -133c0 -89 69 -164 168 -164h182v-81h-182c-101 0 -185 62 -222 144z" />
    <glyph glyph-name="uniFECA" unicode="&#x639;" horiz-adv-x="598" arabic-form="final" 
d="M75 -156c0 75 31 143 95 187l78 56l-138 94v122c0 52 33 85 84 85h175c76 0 136 -58 136 -131v-24c0 -31 -14 -57 -39 -76l-81 -56c32 -15 72 -19 108 -19h105c8 0 14 -7 14 -14v-55c0 -9 -5 -13 -14 -13h-105c-67 0 -129 15 -186 46l-96 -68c-41 -31 -66 -76 -66 -127
c0 -92 78 -167 169 -167h241v-81h-239c-133 0 -241 108 -241 241zM177 224l136 -91l123 88v30c0 33 -29 60 -64 60h-195v-87z" />
    <glyph glyph-name="uniFECC" unicode="&#x639;" horiz-adv-x="595" arabic-form="medial" 
d="M-11 5c-2 3 -3 6 -3 10v52c0 8 5 15 14 15h121c36 0 78 4 107 15l-123 84v124c0 49 33 82 82 82h185c71 0 131 -57 131 -130v-24c0 -31 -15 -59 -40 -76l-84 -58c31 -11 69 -17 108 -17h108c8 0 14 -7 14 -15v-52c0 -8 -6 -15 -14 -15h-112c-64 0 -125 17 -181 48
c-56 -31 -117 -48 -181 -48h-121c-5 0 -8 2 -11 5zM173 223c19 -13 53 -36 81 -55c17 -11 35 -23 53 -36l127 89v30c0 35 -25 61 -60 61h-201v-89z" />
    <glyph glyph-name="uniFECB" unicode="&#x639;" horiz-adv-x="471" arabic-form="initial" 
d="M0 0c-9 0 -14 5 -14 14v54c0 7 6 14 14 14h119c-4 9 -7 17 -10 28l-24 126c-2 8 -2 16 -2 24c0 23 7 55 31 84c24 28 60 47 101 47h154v-76h-160c-36 0 -57 -31 -57 -57c0 -4 0 -8 1 -12l31 -161l214 22l12 -72l-146 -19c-76 -11 -154 -16 -230 -16h-34z" />
    <glyph glyph-name="uni063A" unicode="&#x63a;" horiz-adv-x="566" arabic-form="isolated" 
d="M94 -275c-13 29 -19 59 -19 91c0 64 33 134 94 178c-10 11 -16 24 -19 40l-26 149c-2 9 -3 17 -3 25c0 23 7 54 31 83c24 28 60 47 101 47h144v-76h-150c-36 0 -58 -31 -58 -58c0 -3 0 -7 1 -10l32 -175c23 7 81 26 136 43c32 10 66 21 103 33l20 -63l-233 -73
c-44 -14 -100 -54 -100 -132c0 -88 75 -165 168 -165h182v-81h-182c-101 0 -185 62 -222 144zM227 469v85h85v-85h-85z" />
    <glyph glyph-name="uniFECE" unicode="&#x63a;" horiz-adv-x="598" arabic-form="final" 
d="M94 -250c-13 29 -19 61 -19 94c0 75 31 143 95 187l78 56l-138 94v122c0 52 33 85 84 85h175c76 0 136 -58 136 -131v-24c0 -31 -14 -57 -39 -76l-81 -56c32 -15 72 -19 108 -19h105c8 0 14 -7 14 -14v-55c0 -9 -5 -13 -14 -13h-105c-67 0 -129 15 -186 46l-96 -68
c-41 -31 -66 -76 -66 -127c0 -92 78 -167 169 -167h241v-81h-239c-101 0 -185 61 -222 147zM372 311h-195v-87l136 -91l123 88v30c0 33 -29 60 -64 60zM244 589h85v-84h-85v84z" />
    <glyph glyph-name="uniFED0" unicode="&#x63a;" horiz-adv-x="595" arabic-form="medial" 
d="M-14 67c0 8 5 15 14 15h129c37 0 76 4 107 15l-123 84v124c0 49 33 82 81 82h186c71 0 130 -57 130 -130v-24c0 -31 -14 -59 -38 -76l-85 -58c30 -11 66 -17 109 -17h99c9 0 14 -7 14 -15v-52c0 -8 -6 -15 -14 -15h-104c-64 0 -125 17 -181 48c-56 -31 -117 -48 -181 -48
h-129c-9 0 -14 7 -14 15v52zM182 312v-89c19 -13 52 -36 80 -55c17 -11 34 -23 52 -36l128 89v30c0 35 -25 61 -60 61h-200zM341 506h-85v84h85v-84z" />
    <glyph glyph-name="uniFECF" unicode="&#x63a;" horiz-adv-x="471" arabic-form="initial" 
d="M-14 67c0 7 6 14 14 14h120c-5 10 -9 19 -11 28l-23 126c-2 9 -3 17 -3 25c0 23 7 54 31 83c24 28 60 47 101 47h155v-76h-161c-36 0 -57 -31 -57 -59c0 -3 0 -6 1 -10l31 -161l215 22l11 -72l-145 -19c-77 -10 -153 -15 -230 -15h-35c-9 0 -14 5 -14 14v53zM308 494h-86
v85h86v-85z" />
    <glyph glyph-name="uni0641" unicode="&#x641;" horiz-adv-x="850" arabic-form="isolated" 
d="M75 337h69v-153c0 -60 42 -102 103 -102h392c43 0 80 22 80 74v3v14c-13 -5 -26 -8 -40 -8h-97c-41 0 -78 19 -102 48s-31 61 -31 84c0 8 1 16 3 25l16 84c12 63 65 107 129 107h53c77 0 139 -63 139 -140v-219c0 -85 -69 -154 -155 -154h-377c-107 0 -182 80 -182 181
v156zM520 312c-1 -4 -1 -8 -1 -12c0 -25 21 -54 56 -54h145v127c0 36 -28 64 -63 64h-61c-31 0 -57 -21 -62 -52zM585 630v85h85v-85h-85z" />
    <glyph glyph-name="uniFED2" unicode="&#x641;" horiz-adv-x="925" arabic-form="final" 
d="M75 182v156h69v-153c0 -60 42 -103 103 -103h337c5 0 10 0 15 1c-39 32 -64 73 -64 120v30c0 91 75 165 164 165h12c90 0 163 -74 163 -163v-32c0 -47 -25 -88 -64 -120c5 -1 10 -1 16 -1h99c8 0 14 -7 14 -14v-54c0 -9 -5 -14 -14 -14h-85c-45 0 -80 5 -136 28
c-55 -24 -89 -28 -135 -28h-312c-107 0 -182 81 -182 182zM604 229v-34c0 -37 44 -75 100 -103c58 26 102 69 102 103v33c0 52 -42 94 -95 94h-13c-52 0 -94 -42 -94 -93zM747 516h-85v85h85v-85z" />
    <glyph glyph-name="uniFED4" unicode="&#x641;" horiz-adv-x="446" arabic-form="medial" 
d="M-14 67c0 8 6 15 14 15h118c-39 33 -64 73 -64 121v30c0 91 75 165 163 165h12c90 0 163 -74 163 -164v-31c0 -48 -25 -88 -64 -121h118c7 0 14 -7 14 -15v-53c0 -7 -7 -14 -14 -14h-88c-47 0 -88 8 -136 27c-47 -19 -88 -27 -135 -27h-87c-8 0 -14 7 -14 14v53zM122 227
v-29c0 -43 41 -77 100 -106c59 29 102 63 102 106v29c0 52 -43 94 -95 94h-14c-51 0 -93 -42 -93 -94zM178 516v85h85v-85h-85z" />
    <glyph glyph-name="uniFED3" unicode="&#x641;" horiz-adv-x="454" arabic-form="initial" 
d="M-10 5c-3 3 -4 6 -4 10v52c0 8 7 15 14 15h243c43 0 80 22 80 77v14c-13 -5 -26 -8 -41 -8h-97c-41 0 -78 19 -102 48s-30 61 -30 83c0 8 1 17 3 26l15 84c12 63 66 107 129 107h53c77 0 139 -63 139 -140v-218c0 -86 -69 -155 -155 -155h-237c-4 0 -7 2 -10 5zM123 312
c-1 -4 -1 -8 -1 -12c0 -25 21 -54 56 -54h146v128c0 35 -29 62 -64 62h-61c-31 0 -57 -20 -62 -51zM186 630v85h85v-85h-85z" />
    <glyph glyph-name="uni0642" unicode="&#x642;" horiz-adv-x="695" arabic-form="isolated" 
d="M75 -25v240h69v-228c0 -72 59 -131 130 -131h174c61 0 110 48 110 107v45c-5 -1 -21 -8 -41 -8h-97c-41 0 -78 19 -102 48s-31 61 -31 84c0 8 1 17 3 26l16 84c12 63 65 106 129 106h52c79 0 140 -62 140 -139v-255c0 -99 -80 -179 -179 -179h-173
c-109 0 -200 91 -200 200zM358 147c-1 -4 -1 -8 -1 -12c0 -25 20 -53 55 -53h146v127c0 35 -28 63 -63 63h-62c-31 0 -56 -21 -61 -52zM489 551h86v-85h-86v85zM437 466h-85v85h85v-85z" />
    <glyph glyph-name="uniFED6" unicode="&#x642;" horiz-adv-x="731" arabic-form="final" 
d="M91 -104c-11 25 -16 51 -16 79v239h68l1 -227c0 -72 58 -131 130 -131h174c60 0 109 48 109 107v45c-5 -3 -21 -8 -40 -8h-98c-41 0 -78 20 -102 49s-31 61 -31 84c0 8 1 16 3 25l16 84c13 61 65 106 129 106h53c77 0 139 -62 139 -139v-127h105c9 0 14 -5 14 -14v-54
c0 -7 -6 -14 -14 -14h-106v-47c0 -99 -79 -178 -177 -178h-173c-83 0 -152 50 -184 121zM357 148c-1 -4 -1 -8 -1 -12c0 -25 21 -54 56 -54h145v127c0 35 -28 63 -63 63h-61c-31 0 -57 -21 -62 -52zM569 466h-85v85h85v-85zM347 466v85h85v-85h-85z" />
    <glyph glyph-name="uniFED8" unicode="&#x642;" horiz-adv-x="446" arabic-form="medial" 
d="M-10 5c-3 3 -4 6 -4 9v53c0 8 6 15 14 15h118c-39 33 -64 73 -64 121v30c0 91 75 165 163 165h12c90 0 163 -74 163 -164v-31c0 -48 -25 -88 -64 -121h118c7 0 14 -7 14 -15v-53c0 -7 -7 -14 -14 -14h-88c-47 0 -88 8 -136 27c-47 -19 -88 -27 -135 -27h-87
c-4 0 -7 2 -10 5zM130 264c-5 -11 -8 -24 -8 -37v-29c0 -43 41 -77 100 -106c59 29 102 63 102 106v29c0 52 -43 94 -95 94h-14c-38 0 -71 -24 -85 -57zM248 515v85h85v-85h-85zM196 515h-85v85h85v-85z" />
    <glyph glyph-name="uniFED7" unicode="&#x642;" horiz-adv-x="454" arabic-form="initial" 
d="M0 0c-9 0 -14 5 -14 14v54c0 7 7 14 14 14h243c43 0 80 22 80 77v14c-12 -7 -25 -8 -40 -8h-98c-41 0 -78 19 -102 48s-30 61 -30 83c0 8 1 17 3 26l16 84c11 62 66 107 129 107h52c77 0 140 -63 140 -140v-219c0 -85 -71 -154 -155 -154h-238zM123 312
c-1 -4 -1 -8 -1 -12c0 -25 21 -54 56 -54h146v127c0 35 -28 63 -64 63h-61c-31 0 -57 -20 -62 -51zM252 630v85h85v-85h-85zM115 715h85v-85h-85v85z" />
    <glyph glyph-name="uni0643" unicode="&#x643;" horiz-adv-x="853" arabic-form="isolated" 
d="M76 179v158h69v-148c0 -60 48 -107 107 -107h395c40 0 73 32 73 72v513h69v-513c0 -85 -71 -154 -155 -154h-379c-99 0 -179 80 -179 179zM317 272l-23 47l79 38c-3 0 -12 4 -19 17c0 1 -13 29 -18 37c-12 27 -10 41 -10 42c0 37 23 73 59 87l75 31l19 -47l-77 -35
c-21 -9 -25 -30 -25 -39c0 -7 2 -14 5 -20c5 -7 20 -39 28 -55l137 71l22 -45z" />
    <glyph glyph-name="uniFEDA" unicode="&#x643;" horiz-adv-x="890" arabic-form="final" 
d="M76 179v158h69v-148c0 -60 48 -107 107 -107h395c40 0 73 32 73 72v513h69v-513c0 -40 32 -72 72 -72h29c9 0 14 -5 14 -14v-54c0 -9 -5 -14 -14 -14h-16c-49 0 -92 24 -119 64c-29 -41 -72 -64 -121 -64h-379c-99 0 -179 80 -179 179zM293 320l80 37c-3 0 -12 4 -19 17
c0 1 -14 30 -18 37c-26 53 2 111 49 129l74 31l20 -47l-78 -34c-20 -11 -24 -30 -24 -40c0 -6 2 -13 5 -20c3 -8 20 -38 28 -55l137 72l22 -46l-252 -129z" />
    <glyph glyph-name="uniFEDC" unicode="&#x643;" horiz-adv-x="513" arabic-form="medial" 
d="M0 0c-9 0 -14 5 -14 14v54c0 9 5 14 14 14h135c71 0 111 57 111 109c0 8 4 35 -29 80l-161 220v59l307 157l32 -63l-269 -137l280 -374c23 -31 56 -51 95 -51h12c7 0 14 -7 14 -15v-53c0 -8 -7 -14 -14 -14h-11c-58 0 -106 28 -144 83l-53 78c-5 -104 -94 -161 -179 -161
h-126z" />
    <glyph glyph-name="uniFEDB" unicode="&#x643;" horiz-adv-x="389" arabic-form="initial" 
d="M-14 14v54c0 9 5 14 14 14h135c44 0 82 25 98 57c8 16 13 33 13 51c0 8 4 34 -29 81l-161 221v58l307 157l32 -63l-269 -137l148 -198c25 -34 39 -61 40 -82c2 -21 3 -34 3 -40c0 -60 -27 -119 -86 -158c-30 -19 -65 -29 -105 -29h-126c-9 0 -14 5 -14 14z" />
    <glyph glyph-name="uni06A9" unicode="&#x6a9;" horiz-adv-x="873" arabic-form="isolated" 
d="M75 353h69v-169c0 -59 42 -102 103 -102h372c44 0 82 25 98 57c8 16 13 33 13 51c0 7 4 33 -29 80l-160 221v59l306 157l31 -63l-267 -137l147 -198c25 -34 39 -61 40 -82c2 -21 3 -34 3 -40c0 -60 -27 -119 -87 -158c-30 -19 -65 -29 -105 -29h-352
c-107 0 -182 80 -182 182v171z" />
    <glyph glyph-name="uniFB8F" unicode="&#x6a9;" horiz-adv-x="996" arabic-form="final" 
d="M75 182v171h69v-169c0 -59 42 -102 103 -102h372c71 0 111 57 111 109c0 8 4 35 -29 80l-161 220v59l307 157l31 -63l-267 -137l279 -373c23 -31 55 -52 94 -52h12c8 0 14 -7 14 -15v-53c0 -7 -6 -14 -14 -14h-10c-57 0 -105 28 -144 83l-54 78
c-3 -104 -95 -161 -179 -161h-352c-107 0 -182 80 -182 182z" />
    <glyph glyph-name="uniFB91" unicode="&#x6a9;" horiz-adv-x="513" arabic-form="medial" 
d="M0 0c-9 0 -14 5 -14 14v54c0 9 5 14 14 14h135c71 0 111 57 111 109c0 8 4 35 -29 80l-161 220v59l307 157l32 -63l-269 -137l280 -374c23 -31 56 -51 95 -51h12c7 0 14 -7 14 -15v-53c0 -8 -7 -14 -14 -14h-11c-58 0 -106 28 -144 83l-53 78c-5 -104 -94 -161 -179 -161
h-126z" />
    <glyph glyph-name="uniFB90" unicode="&#x6a9;" horiz-adv-x="389" arabic-form="initial" 
d="M-14 14v54c0 9 5 14 14 14h135c44 0 82 25 98 57c8 16 13 33 13 51c0 8 4 34 -29 81l-161 221v58l307 157l32 -63l-269 -137l148 -198c25 -34 39 -61 40 -82c2 -21 3 -34 3 -40c0 -60 -27 -119 -86 -158c-30 -19 -65 -29 -105 -29h-126c-9 0 -14 5 -14 14z" />
    <glyph glyph-name="uni06AF" unicode="&#x6af;" horiz-adv-x="873" arabic-form="isolated" 
d="M75 182v171h69v-169c0 -59 42 -102 103 -102h372c44 0 82 25 98 57c8 16 13 33 13 51c0 7 4 33 -29 80l-160 221v59l306 157l31 -63l-267 -137l147 -198c25 -34 39 -61 40 -82c2 -21 3 -34 3 -40c0 -60 -27 -119 -87 -158c-30 -19 -65 -29 -105 -29h-352
c-107 0 -182 80 -182 182zM539 618l-23 52l275 141l23 -53z" />
    <glyph glyph-name="uniFB93" unicode="&#x6af;" horiz-adv-x="996" arabic-form="final" 
d="M75 353h69v-169c0 -59 42 -102 103 -102h372c71 0 111 57 111 109c0 8 4 35 -29 80l-161 220v59l307 157l31 -63l-267 -137l279 -373c23 -31 55 -52 94 -52h12c8 0 14 -7 14 -15v-53c0 -7 -6 -14 -14 -14h-10c-57 0 -105 28 -144 83l-54 78c-3 -104 -95 -161 -179 -161
h-352c-107 0 -182 80 -182 182v171zM516 670l275 141l23 -53l-275 -140z" />
    <glyph glyph-name="uniFB95" unicode="&#x6af;" horiz-adv-x="513" arabic-form="medial" 
d="M0 0c-9 0 -14 5 -14 14v54c0 9 5 14 14 14h135c71 0 111 57 111 109c0 8 4 35 -29 80l-161 220v59l307 157l32 -63l-269 -137l280 -374c23 -31 56 -51 95 -51h12c7 0 14 -7 14 -15v-53c0 -8 -7 -14 -14 -14h-11c-58 0 -106 28 -144 83l-53 78c-5 -104 -94 -161 -179 -161
h-126zM34 670l276 141l23 -53l-276 -140z" />
    <glyph glyph-name="uniFB94" unicode="&#x6af;" horiz-adv-x="389" arabic-form="initial" 
d="M-14 68c0 9 5 14 14 14h135c44 0 82 25 98 57c8 16 13 33 13 51c0 8 4 34 -29 81l-161 221v58l307 157l32 -63l-269 -137l148 -198c25 -34 39 -61 40 -82c2 -21 3 -34 3 -40c0 -60 -27 -119 -86 -158c-30 -19 -65 -29 -105 -29h-126c-9 0 -14 5 -14 14v54zM58 618l-23 52
l275 141l23 -53z" />
    <glyph glyph-name="uni0644" unicode="&#x644;" horiz-adv-x="691" arabic-form="isolated" 
d="M75 264h69v-227c0 -72 58 -130 130 -130h174c60 0 109 48 109 109v643h69v-655c0 -99 -79 -179 -178 -179h-173c-109 0 -200 91 -200 200v239z" />
    <glyph glyph-name="uniFEDE" unicode="&#x644;" horiz-adv-x="751" arabic-form="final" 
d="M75 265l69 -1v-225c0 -72 58 -131 130 -131h173c61 0 110 49 110 110v641h69v-505c0 -40 32 -72 72 -72h53c7 0 14 -7 14 -14v-53c0 -10 -5 -15 -14 -15h-38c-32 0 -63 9 -88 40v-39c0 -91 -77 -175 -178 -175h-172c-109 0 -200 91 -200 202v237z" />
    <glyph glyph-name="uniFEE0" unicode="&#x644;" horiz-adv-x="332" arabic-form="medial" 
d="M0 0c-9 0 -14 5 -14 14v54c0 9 5 14 14 14h62c39 0 72 32 72 72v505h69v-510c1 -37 33 -67 72 -67h57c9 0 14 -5 14 -14v-54c0 -9 -5 -14 -14 -14h-45c-48 0 -91 23 -119 58c-27 -35 -70 -58 -119 -58h-49z" />
    <glyph glyph-name="uniFEDF" unicode="&#x644;" horiz-adv-x="263" arabic-form="initial" 
d="M-13 14v54c0 9 4 14 13 14h61c40 0 73 32 73 72v505h69v-505c0 -85 -71 -154 -155 -154h-48c-9 0 -13 5 -13 14z" />
    <glyph glyph-name="uni0645" unicode="&#x645;" horiz-adv-x="652" arabic-form="isolated" 
d="M74 -249v449c0 85 71 154 155 154h221c77 0 140 -62 140 -139v-125c0 -55 -36 -90 -89 -90h-124c-41 0 -77 19 -101 48s-31 61 -31 84c0 8 1 16 3 25l22 121h-54c-40 0 -73 -36 -73 -76v-451h-69zM316 147c-1 -4 -1 -9 -1 -13c0 -24 16 -52 56 -52h150v134
c0 35 -27 62 -62 62h-119z" />
    <glyph glyph-name="uniFEE2" unicode="&#x645;" horiz-adv-x="742" arabic-form="final" 
d="M143 -249h-69v449c0 86 71 155 155 155h221c77 0 140 -63 140 -140v-61c0 -40 33 -72 73 -72h79c9 0 14 -5 14 -14v-54c0 -7 -6 -14 -14 -14h-67c-39 0 -79 15 -104 50c-11 -40 -35 -50 -70 -50h-124c-41 0 -77 19 -101 48s-31 61 -31 84c0 8 1 16 3 25l22 122h-54
c-40 0 -73 -37 -73 -77v-451zM316 147c-1 -4 -1 -8 -1 -12c0 -25 17 -53 56 -53h150v134c0 35 -28 63 -63 63h-118z" />
    <glyph glyph-name="uniFEE4" unicode="&#x645;" horiz-adv-x="559" arabic-form="medial" 
d="M0 0c-9 0 -14 5 -14 14v54c0 7 6 14 14 14h32c39 0 70 27 77 63l21 103c11 62 66 107 129 107h56c77 0 140 -63 140 -139v-61c0 -41 32 -73 72 -73h32c8 0 14 -7 14 -14v-54c0 -9 -5 -14 -14 -14h-19c-40 0 -77 15 -104 50c-11 -40 -37 -50 -72 -50h-122
c-43 0 -81 19 -102 66c-24 -47 -67 -66 -111 -66h-29zM180 147c-1 -4 -1 -8 -1 -12c0 -25 20 -53 55 -53h152v134c0 35 -28 63 -64 63h-65c-31 0 -55 -22 -62 -51z" />
    <glyph glyph-name="uniFEE3" unicode="&#x645;" horiz-adv-x="515" arabic-form="initial" 
d="M0 0c-9 0 -14 5 -14 14v54c0 7 6 14 14 14h32c39 0 70 27 77 63l21 103c11 62 66 107 129 107h56c77 0 140 -63 140 -139v-126c0 -53 -35 -90 -91 -90h-122c-43 0 -79 19 -102 66c-24 -47 -67 -66 -111 -66h-29zM180 147c-1 -4 -1 -8 -1 -12c0 -25 20 -53 55 -53h152v134
c0 35 -28 63 -64 63h-65c-31 0 -55 -22 -62 -51z" />
    <glyph glyph-name="uni0646" unicode="&#x646;" horiz-adv-x="691" arabic-form="isolated" 
d="M76 292h69v-256c0 -72 57 -129 130 -129h173c61 0 110 48 110 108v294h69v-306c0 -99 -80 -178 -179 -178h-172c-112 0 -200 88 -200 200v267zM394 310h-85v85h85v-85z" />
    <glyph glyph-name="uniFEE6" unicode="&#x646;" horiz-adv-x="758" arabic-form="final" 
d="M75 25v267h69v-256c0 -72 57 -129 130 -129h173c61 0 110 48 110 108v294h69v-154c0 -52 38 -73 79 -73h53c9 0 14 -5 14 -14v-54c0 -7 -6 -14 -14 -14h-49c-36 0 -69 17 -84 40v-42c0 -96 -81 -173 -178 -173h-172c-112 0 -200 88 -200 200zM308 310v85h85v-85h-85z" />
    <glyph glyph-name="uniFEE8" unicode="&#x646;" horiz-adv-x="346" arabic-form="medial" 
d="M-14 67c0 8 6 15 14 15h65c39 0 70 27 78 63l31 158l68 -11l-26 -132c-1 -4 -1 -9 -1 -13c0 -11 3 -27 16 -41s33 -24 54 -24h61c8 0 14 -7 14 -15v-53c0 -9 -5 -14 -14 -14h-62c-44 0 -96 29 -107 66c-23 -39 -68 -66 -115 -66h-62c-9 0 -14 5 -14 14v53zM224 422h-85
v85h85v-85z" />
    <glyph glyph-name="uniFEE7" unicode="&#x646;" horiz-adv-x="328" arabic-form="initial" 
d="M-14 67c0 8 6 15 14 15h121c40 0 72 32 72 71v184h69v-184c0 -85 -69 -153 -153 -153h-109c-9 0 -14 5 -14 14v53zM182 541h85v-85h-85v85z" />
    <glyph glyph-name="uni0647" unicode="&#x647;" horiz-adv-x="486" arabic-form="isolated" 
d="M75 156v34c0 52 24 96 60 119c15 9 28 17 39 24l18 12l-67 45l37 59c10 -7 21 -14 32 -22c19 -13 44 -29 71 -48c30 -21 64 -44 103 -70c37 -27 57 -70 57 -117v-36c0 -86 -68 -165 -165 -165h-21c-95 0 -164 79 -164 165zM144 163c0 -49 40 -92 92 -92h28
c53 0 92 46 92 91v38c0 19 -8 38 -27 51c-5 4 -25 17 -44 29c-11 7 -23 15 -36 24l-80 -54c-15 -12 -24 -25 -25 -49v-38z" />
    <glyph glyph-name="uniFEEA" unicode="&#x647;" horiz-adv-x="515" arabic-form="final" 
d="M75 235c0 84 49 140 120 159l138 35v82h69v-351c0 -42 39 -78 83 -78h30c9 0 14 -5 14 -14v-54c0 -9 -5 -14 -14 -14h-30c-63 0 -113 37 -137 90c-12 -10 -27 -15 -45 -15h-134c-60 0 -94 35 -94 95v65zM162 290c-12 -18 -18 -37 -18 -57v-76h189v199l-123 -32
c-21 -5 -37 -17 -48 -34z" />
    <glyph glyph-name="uniFEEC" unicode="&#x647;" horiz-adv-x="570" arabic-form="medial" 
d="M-10 5c-3 3 -4 6 -4 10v53c0 9 5 14 14 14h88v122c0 77 61 140 140 140h38c63 0 117 -44 129 -107l15 -79c2 -9 3 -18 3 -26c0 -22 -6 -54 -30 -83s-61 -49 -102 -49h-84c-15 0 -28 4 -41 8c-104 -5 -156 -8 -156 -8v0c46 2 82 3 107 3c33 0 50 -2 50 -5
c0 -64 25 -96 77 -107l90 -17l81 126c35 55 85 82 151 82h14c9 0 14 -5 14 -14v-53c0 -8 -6 -15 -14 -15h-31c-39 0 -64 -16 -87 -51c-8 -12 -93 -146 -97 -150l-149 33c-75 16 -117 71 -118 168h-88c-4 0 -7 2 -10 5zM157 82h131c38 0 56 35 56 57c0 3 -1 6 -1 9l-13 68
c-5 31 -31 52 -62 52h-49c-35 0 -62 -28 -62 -63v-123z" />
    <glyph glyph-name="uniFEEB" unicode="&#x647;" horiz-adv-x="677" arabic-form="initial" 
d="M-14 13v56c0 8 7 13 14 13h105c-19 7 -26 38 -26 57c0 7 1 13 2 20l14 70c14 60 64 102 125 102h37c77 0 134 -59 134 -134v-81c0 -21 -7 -31 -7 -34h163v140c0 45 -26 75 -62 86l-328 102l19 70l321 -100c68 -21 119 -76 119 -159v-126c0 -60 -35 -95 -95 -95h-150v47
c-5 -13 -37 -47 -82 -47h-289c-7 0 -14 6 -14 13zM146 143c-1 -4 -1 -8 -1 -12c0 -24 21 -49 53 -49h125v118c0 33 -26 60 -61 60h-45c-28 0 -53 -21 -58 -49z" />
    <glyph glyph-name="uni06C0" unicode="&#x6c0;" horiz-adv-x="486" arabic-form="isolated" 
d="M88 93c-9 20 -13 41 -13 62v34c0 52 24 96 60 119c15 9 28 18 39 25c6 4 12 8 18 11l-67 45l37 59l14 -9c43 -31 177 -122 193 -132c36 -25 56 -69 56 -116v-36c0 -86 -68 -165 -165 -165h-21c-72 0 -127 44 -151 103zM144 200v-38c0 -49 40 -90 92 -90h28
c53 0 92 44 92 89v38c0 21 -9 38 -27 52c-5 3 -25 16 -44 29c-11 7 -23 15 -36 24l-80 -55c-15 -11 -24 -25 -25 -49zM127 572l78 38c-1 0 -11 3 -19 18c0 1 -12 29 -17 36c-12 27 -10 41 -10 43c0 36 23 71 58 86l75 31l19 -47l-77 -35c-20 -9 -24 -30 -24 -40
c0 -6 1 -13 4 -19c1 -2 3 -5 6 -10l7 -15c5 -11 11 -23 15 -30l137 72l23 -46l-252 -129z" />
    <glyph glyph-name="uniFBA5" unicode="&#x6c0;" horiz-adv-x="515" arabic-form="final" 
d="M75 170v65c0 84 50 142 119 159l139 35v82h69v-351c0 -44 39 -78 83 -78h30c9 0 14 -5 14 -14v-54c0 -9 -5 -14 -14 -14h-30c-63 0 -113 37 -137 90c-12 -10 -27 -15 -45 -15h-134c-60 0 -94 35 -94 95zM144 233v-76h189v197l-124 -32c-40 -11 -65 -49 -65 -89zM142 521
l-24 46l80 39c0 1 -11 3 -18 18c0 2 -14 29 -19 36c-12 27 -10 41 -10 43c0 36 22 72 59 86l74 31l20 -47l-78 -34c-20 -9 -23 -29 -23 -38c0 -7 1 -14 5 -21c2 -6 12 -27 20 -42l7 -14l136 72l23 -46z" />
    <glyph glyph-name="uni0629" unicode="&#x629;" horiz-adv-x="486" arabic-form="isolated" 
d="M75 189c0 52 24 96 60 119c15 9 28 18 39 25c6 4 12 8 18 11l-67 45l37 59l14 -9c43 -31 177 -122 193 -132c36 -25 56 -69 56 -116v-36c0 -86 -68 -165 -165 -165h-21c-95 0 -164 79 -164 165v34zM144 162c0 -49 40 -90 92 -90h28c53 0 92 44 92 89v38
c0 21 -9 38 -27 52c-5 3 -25 16 -44 29c-11 7 -23 15 -36 24l-80 -55c-15 -11 -24 -25 -25 -49v-38zM357 566h-85v85h85v-85zM135 566v85h85v-85h-85z" />
    <glyph glyph-name="uniFE94" unicode="&#x629;" horiz-adv-x="515" arabic-form="final" 
d="M75 170v65c0 84 50 142 119 159l139 35v82h69v-351c0 -44 39 -78 83 -78h30c9 0 14 -5 14 -14v-54c0 -9 -5 -14 -14 -14h-30c-63 0 -113 37 -137 90c-12 -10 -27 -15 -45 -15h-134c-60 0 -94 35 -94 95zM162 289c-12 -17 -18 -36 -18 -56v-76h189v197l-124 -32
c-20 -5 -36 -16 -47 -33zM346 616h-85v85h85v-85zM124 701h85v-85h-85v85z" />
    <glyph glyph-name="uni0648" unicode="&#x648;" horiz-adv-x="478" arabic-form="isolated" 
d="M70 99c-3 11 -5 22 -5 33c0 8 1 16 3 25l17 91c11 61 66 106 129 106h56c77 0 140 -62 140 -139v-218c0 -93 -60 -180 -150 -209l-114 -39l-22 69l120 40c57 20 96 71 96 132v18c-11 -7 -25 -8 -40 -8h-103c-62 0 -113 42 -127 99zM135 147c-1 -4 -1 -8 -1 -11
c0 -26 21 -54 56 -54h151v133c0 35 -28 63 -63 63h-66c-31 0 -55 -20 -62 -51z" />
    <glyph glyph-name="uniFEEE" unicode="&#x648;" horiz-adv-x="489" arabic-form="final" 
d="M70 99c-3 11 -5 22 -5 33c0 8 1 16 3 25l17 91c11 61 66 106 129 106h56c77 0 140 -62 140 -139v-133h79c8 0 14 -7 14 -14v-54c0 -9 -5 -14 -14 -14h-80v-12c-3 -91 -61 -169 -149 -200l-114 -39l-22 69l120 40c57 20 96 71 96 132v18c-11 -7 -25 -8 -40 -8h-103
c-62 0 -111 42 -127 99zM135 147c-1 -4 -1 -8 -1 -11c0 -26 21 -54 56 -54h151v133c0 35 -28 63 -63 63h-66c-31 0 -55 -20 -62 -51z" />
    <glyph glyph-name="uni0624" unicode="&#x624;" horiz-adv-x="477" arabic-form="isolated" 
d="M70 99c-3 11 -5 22 -5 33c0 8 1 16 3 25l17 91c11 61 66 106 129 106h56c77 0 140 -62 140 -139v-218c0 -93 -60 -180 -150 -209l-114 -39l-22 69l120 40c57 20 96 71 96 132v18c-11 -7 -25 -8 -40 -8h-103c-62 0 -113 42 -127 99zM135 147c-1 -4 -1 -8 -1 -11
c0 -26 21 -54 56 -54h151v133c0 35 -28 63 -63 63h-66c-31 0 -55 -20 -62 -51zM74 471l77 37l-6 3c-4 4 -8 9 -11 15c-2 2 -13 29 -18 36c-12 27 -10 41 -10 43c0 36 22 72 59 86l74 31l19 -47l-77 -34c-20 -9 -24 -29 -24 -39c0 -7 2 -13 5 -20c1 -2 2 -5 5 -10l7 -15
c5 -11 12 -23 16 -31l137 72l22 -46l-253 -129z" />
    <glyph glyph-name="uniFE86" unicode="&#x624;" horiz-adv-x="489" arabic-form="final" 
d="M70 99c-3 11 -5 22 -5 33c0 8 1 16 3 25l17 91c11 61 66 106 129 106h56c77 0 139 -62 139 -139v-133h80c8 0 14 -7 14 -14v-54c0 -9 -5 -14 -14 -14h-80v-10c-3 -92 -61 -171 -149 -202l-114 -39l-22 69l120 40c57 20 96 71 96 132v18c-11 -7 -25 -8 -40 -8h-103
c-62 0 -111 42 -127 99zM135 147c-1 -4 -1 -8 -1 -11c0 -26 21 -54 56 -54h150v134c0 35 -27 62 -62 62h-66c-31 0 -55 -20 -62 -51zM74 471l77 37l-6 3c-4 4 -8 9 -11 15c-2 2 -13 29 -18 36c-12 27 -10 41 -10 43c0 36 22 72 59 86l74 31l19 -47l-77 -34
c-20 -9 -24 -29 -24 -39c0 -7 2 -13 5 -20c1 -2 2 -5 5 -10l7 -15c5 -11 12 -23 16 -31l137 72l22 -46l-253 -129z" />
    <glyph glyph-name="uni0649" unicode="&#x649;" horiz-adv-x="722" arabic-form="isolated" 
d="M75 37v230h69v-219c0 -71 58 -130 131 -130h205c59 0 107 48 107 108v39l-273 64v106c0 97 72 170 159 181l116 15l11 -72l-132 -18c-51 -8 -87 -54 -87 -105v-49l205 -48c43 -9 70 -40 70 -83v-40c0 -100 -80 -180 -179 -180h-202c-109 0 -200 90 -200 201z" />
    <glyph glyph-name="uniFEF0" unicode="&#x649;" horiz-adv-x="737" arabic-form="final" 
d="M75 205h69v-228c0 -72 59 -130 130 -130h176c59 0 108 48 108 107v46h-187v82h366c7 0 14 -6 14 -14v-53c0 -8 -7 -14 -14 -15h-115c3 -7 4 -14 4 -22v-35c0 -99 -80 -178 -179 -178h-172c-109 0 -200 91 -200 200v240z" />
    <glyph glyph-name="uniFBE9" unicode="&#x649;" horiz-adv-x="346" arabic-form="medial" 
d="M-14 67c0 8 6 15 14 15h65c39 0 70 27 78 63l31 158l68 -11l-26 -132c-1 -4 -1 -9 -1 -13c0 -11 3 -27 16 -41s33 -24 54 -24h61c8 0 14 -7 14 -15v-53c0 -9 -5 -14 -14 -14h-62c-44 0 -96 29 -107 66c-23 -39 -68 -66 -115 -66h-62c-9 0 -14 5 -14 14v53z" />
    <glyph glyph-name="uniFBE8" unicode="&#x649;" horiz-adv-x="314" arabic-form="initial" 
d="M-10 5c-3 3 -4 6 -4 10v52c0 8 6 15 14 15h111c40 0 71 33 72 72v184h69v-183c0 -86 -69 -155 -154 -155h-98c-4 0 -7 2 -10 5z" />
    <glyph glyph-name="uni064A" unicode="&#x64a;" horiz-adv-x="722" arabic-form="isolated" 
d="M75 37v230h69v-219c0 -71 58 -130 131 -130h205c59 0 107 48 107 108v39l-273 64v106c0 97 72 170 159 181l116 15l11 -72l-132 -18c-51 -8 -87 -54 -87 -105v-49l205 -48c43 -9 70 -40 70 -83v-40c0 -100 -80 -180 -179 -180h-202c-109 0 -200 90 -200 201zM473 -345
h-85v85h85v-85zM252 -260h84v-85h-84v85z" />
    <glyph glyph-name="uniFEF2" unicode="&#x64a;" horiz-adv-x="737" arabic-form="final" 
d="M91 -113c-11 25 -16 51 -16 78v240h69v-228c0 -72 59 -130 130 -130h176c59 0 108 48 108 107v46h-187v82h366c7 0 14 -6 14 -14v-53c0 -8 -7 -14 -14 -15h-115c3 -7 4 -14 4 -22v-35c0 -99 -80 -178 -179 -178h-172c-83 0 -153 52 -184 122zM462 -405h-85v85h85v-85z
M240 -320h85v-85h-85v85z" />
    <glyph glyph-name="uniFEF4" unicode="&#x64a;" horiz-adv-x="346" arabic-form="medial" 
d="M0 0c-9 0 -14 5 -14 14v53c0 8 6 15 14 15h65c39 0 70 27 78 63l31 158l68 -11l-26 -132c-1 -4 -1 -9 -1 -13c0 -11 3 -27 16 -41s33 -24 54 -24h61c8 0 14 -7 14 -15v-53c0 -9 -5 -14 -14 -14h-62c-44 0 -96 29 -107 66c-23 -39 -68 -66 -115 -66h-62zM286 -205h-85v85
h85v-85zM64 -120h85v-85h-85v85z" />
    <glyph glyph-name="uniFEF3" unicode="&#x64a;" horiz-adv-x="337" arabic-form="initial" 
d="M0 0c-9 0 -14 5 -14 14v53c0 8 6 15 14 15h121c40 0 72 32 72 71v184h69v-184c0 -85 -69 -153 -153 -153h-109zM226 -205h-85v85h85v-85zM89 -205h-84v85h84v-85z" />
    <glyph glyph-name="uni06CC" unicode="&#x6cc;" horiz-adv-x="722" arabic-form="isolated" 
d="M75 37v230h69v-219c0 -71 58 -130 131 -130h205c59 0 107 48 107 108v39l-273 64v106c0 97 72 170 159 181l116 15l11 -72l-132 -18c-51 -8 -87 -54 -87 -105v-49l205 -48c43 -9 70 -40 70 -83v-40c0 -100 -80 -180 -179 -180h-202c-109 0 -200 90 -200 201z" />
    <glyph glyph-name="uniFBFD" unicode="&#x6cc;" horiz-adv-x="737" arabic-form="final" 
d="M75 205h69v-228c0 -72 59 -130 130 -130h176c59 0 108 48 108 107v46h-187v82h366c7 0 14 -6 14 -14v-53c0 -8 -7 -14 -14 -15h-115c3 -7 4 -14 4 -22v-35c0 -99 -80 -178 -179 -178h-172c-109 0 -200 91 -200 200v240z" />
    <glyph glyph-name="uniFBFF" unicode="&#x6cc;" horiz-adv-x="346" arabic-form="medial" 
d="M0 0c-9 0 -14 5 -14 14v53c0 8 6 15 14 15h65c39 0 70 27 78 63l31 158l68 -11l-26 -132c-1 -4 -1 -9 -1 -13c0 -11 3 -27 16 -41s33 -24 54 -24h61c8 0 14 -7 14 -15v-53c0 -9 -5 -14 -14 -14h-62c-44 0 -96 29 -107 66c-23 -39 -68 -66 -115 -66h-62zM286 -205h-85v85
h85v-85zM64 -120h85v-85h-85v85z" />
    <glyph glyph-name="uniFBFE" unicode="&#x6cc;" horiz-adv-x="337" arabic-form="initial" 
d="M0 0c-9 0 -14 5 -14 14v53c0 8 6 15 14 15h121c40 0 72 32 72 71v184h69v-184c0 -85 -69 -153 -153 -153h-109zM226 -205h-85v85h85v-85zM89 -205h-85v85h85v-85z" />
    <glyph glyph-name="uni0626" unicode="&#x626;" horiz-adv-x="759" arabic-form="isolated" 
d="M112 37v230h69v-219c0 -71 58 -130 131 -130h205c59 0 107 48 107 108v39l-273 64v106c0 97 72 170 159 181l116 15l11 -72l-132 -18c-51 -8 -87 -54 -87 -105v-49l205 -48c43 -9 70 -40 70 -83v-40c0 -100 -80 -180 -179 -180h-202c-109 0 -200 90 -200 201zM97 398
l-22 48c19 8 50 24 78 37l-6 3c-5 3 -9 8 -12 14l-18 36c-12 27 -10 41 -10 43c0 36 22 73 59 87l75 31l19 -47l-78 -35c-20 -9 -24 -29 -24 -38c0 -7 2 -14 5 -21c2 -5 13 -25 21 -41l7 -14c31 16 64 32 91 47c16 8 31 16 46 24l22 -45z" />
    <glyph glyph-name="uniFE8A" unicode="&#x626;" horiz-adv-x="738" arabic-form="final" 
d="M76 205h69v-228c0 -72 59 -130 130 -130h176c59 0 108 48 108 107v46h-187v82h366c7 0 14 -6 14 -14v-53c0 -8 -7 -14 -14 -15h-115c3 -7 4 -14 4 -22v-35c0 -99 -80 -178 -179 -178h-172c-109 0 -200 91 -200 200v240zM97 329l-22 48l78 37c0 1 -11 3 -18 18
c-3 3 -13 29 -18 36c-26 52 1 111 49 130l73 31l20 -47l-78 -35c-19 -8 -23 -29 -23 -39c0 -7 2 -13 5 -20c1 -2 2 -5 5 -10l7 -15c5 -11 12 -23 16 -30l136 71l23 -46z" />
    <glyph glyph-name="uniFE8C" unicode="&#x626;" horiz-adv-x="346" arabic-form="medial" 
d="M0 0c-9 0 -14 5 -14 14v53c0 8 6 15 14 15h65c39 0 70 27 78 63l31 158l68 -11l-26 -132c-1 -4 -1 -9 -1 -13c0 -11 3 -27 16 -41s33 -24 54 -24h61c8 0 14 -7 14 -15v-53c0 -9 -5 -14 -14 -14h-62c-44 0 -96 29 -107 66c-23 -39 -68 -66 -115 -66h-62zM31 419l79 36
c0 1 -11 3 -18 18c0 1 -13 29 -18 37c-12 27 -10 40 -10 42c0 36 23 72 59 86l75 31l19 -46l-78 -35c-20 -11 -24 -30 -24 -40c0 -6 2 -13 5 -19l28 -55l137 71l22 -46l-252 -129z" />
    <glyph glyph-name="uniFE8B" unicode="&#x626;" horiz-adv-x="343" arabic-form="initial" 
d="M-14 67c0 8 6 15 14 15h121c40 0 72 32 72 71v184h69v-184c0 -85 -69 -153 -153 -153h-109c-9 0 -14 5 -14 14v53zM19 369l-23 47l78 38l-6 3c-3 3 -8 8 -12 15c-1 3 -14 27 -18 36c-12 27 -10 41 -10 42c0 36 23 73 59 87l74 31l19 -47l-77 -35c-20 -9 -24 -29 -24 -38
c0 -7 2 -13 5 -20c4 -6 12 -26 20 -42l7 -14c62 32 132 69 138 72l22 -46z" />
    <glyph glyph-name="uni064B" unicode="&#xfe70;" arabic-form="isolated" 
d="M154 764l-301 -64l-8 45l298 64zM154 883l-301 -64l-8 45l298 64z" />
    <glyph glyph-name="uni064C" unicode="&#xfe72;" arabic-form="isolated" 
d="M-158 700l-8 45l44 8l-22 101l50 13l23 -102l48 9c-8 31 -14 62 -18 83c-1 4 -1 8 -1 12c0 27 20 61 67 65l53 4h5c31 0 65 -25 74 -62l8 -41v-8c0 -33 -23 -63 -63 -72l-11 -2c-23 -6 -72 -16 -120 -26c-38 -8 -81 -17 -129 -27zM13 877c-4 -4 -6 -9 -6 -15
c0 -3 0 -5 1 -8l17 -70l73 16c11 4 21 13 21 24v4l-9 42c-3 15 -17 21 -27 21h-3l-51 -6c-6 0 -11 -3 -16 -8z" />
    <glyph glyph-name="uni064D" unicode="&#xfe74;" arabic-form="isolated" 
d="M154 -53l-300 -65l-9 54l298 64zM154 -172l-300 -64l-9 53l298 64z" />
    <glyph glyph-name="uni064E" unicode="&#xfe76;" arabic-form="isolated" 
d="M155 764l-301 -64l-8 45l298 64z" />
    <glyph glyph-name="uni064F" unicode="&#xfe78;" arabic-form="isolated" 
d="M-142 700l-10 45l113 23c-7 31 -14 62 -17 83c-1 4 -1 8 -1 11c0 27 19 62 66 65l53 6h5c31 0 67 -27 75 -63l7 -41c1 -4 1 -8 1 -11c0 -31 -21 -58 -61 -69l-10 -2c-20 -4 -63 -12 -106 -22c-34 -7 -72 -16 -115 -25zM-3 871c-4 -5 -5 -10 -5 -17v-6l18 -70l72 16
c13 3 22 13 22 23v5l-9 42c-4 15 -18 21 -28 21h-3l-50 -5c-7 -1 -12 -4 -17 -9z" />
    <glyph glyph-name="uni0650" unicode="&#xfe7a;" arabic-form="isolated" 
d="M155 -49l-301 -64l-9 49l298 64z" />
    <glyph glyph-name="uni0651" unicode="&#xfe7c;" arabic-form="isolated" 
d="M-149 862h47v-75c1 -19 16 -33 35 -34h7c19 0 34 13 38 30l14 73l47 -9l-12 -62v-5c0 -15 15 -27 32 -27h43v113h48v-116c0 -33 -17 -50 -50 -50h-35c-24 0 -45 9 -60 32c-15 -23 -42 -32 -67 -32c-48 0 -87 39 -87 88v74z" />
    <glyph glyph-name="uni0652" unicode="&#xfe7e;" arabic-form="isolated" 
d="M-90 797c0 48 37 86 85 86h10c48 0 86 -38 86 -86v-11c0 -47 -38 -86 -86 -86h-10c-48 1 -85 39 -85 86v11zM-46 789c0 -21 15 -38 38 -38h18c20 0 38 15 38 38v9c0 21 -18 37 -38 37h-18c-23 0 -38 -16 -38 -37v-9z" />
    <glyph glyph-name="uniFC5E" unicode="&#xfc5e;" arabic-form="isolated" 
d="M-169 960l44 10l-22 100l51 12l22 -101l48 10c-3 11 -5 22 -8 33c-4 17 -7 37 -10 48c-1 4 -1 8 -1 12c0 17 17 63 67 66l52 4h6c34 0 67 -26 74 -62l8 -42v-8c0 -33 -23 -60 -63 -71l-11 -2c-23 -6 -71 -15 -119 -25c-38 -9 -81 -18 -129 -28zM-150 787v74l47 -1v-74
c1 -19 16 -34 35 -34h8c17 0 33 12 36 31l15 72l47 -9l-12 -62v-5c0 -15 15 -27 32 -27h43l1 113l48 -1l-1 -116c0 -32 -16 -48 -49 -48h-41c-25 0 -44 9 -58 27c-16 -19 -39 -27 -63 -28c-48 0 -88 40 -88 88zM10 1093c-4 -4 -6 -10 -6 -16c0 -2 0 -4 1 -7l17 -69l73 16
c11 3 22 11 22 22v4l-9 44c-4 15 -17 20 -26 20c-2 0 -3 -1 -5 -1l-51 -5c-6 0 -11 -3 -16 -8z" />
    <glyph glyph-name="uniFC5F" unicode="&#xfc5f;" arabic-form="isolated" 
d="M-151 1132h47v-75c1 -19 16 -34 35 -35h7c19 0 34 14 37 31l15 72l46 -8l-11 -62v-5c0 -15 15 -27 32 -27h43v112h48v-116c0 -33 -17 -49 -50 -49h-41c-23 0 -43 11 -58 27c-15 -17 -39 -27 -63 -27c-48 0 -87 39 -87 87v75zM-146 700l-9 45l299 65l10 -46zM-155 864
l299 64l10 -45l-300 -64z" />
    <glyph glyph-name="uniFC60" unicode="&#xfc60;" arabic-form="isolated" 
d="M-150 788v74h47v-74c1 -19 16 -34 35 -35h7c19 0 34 12 38 31l14 72l47 -9l-12 -62v-5c0 -15 15 -27 32 -27h43v113h48v-116c0 -33 -17 -50 -50 -50h-41c-24 1 -43 11 -58 28c-15 -17 -39 -28 -63 -28c-48 0 -87 40 -87 88zM-155 950l298 64l11 -45l-300 -65z" />
    <glyph glyph-name="uniFC61" unicode="&#xfc61;" arabic-form="isolated" 
d="M-148 948l113 24c-3 16 -14 61 -17 82c-1 4 -1 8 -1 12c0 27 21 61 66 65l53 5h5c34 0 68 -27 75 -63l8 -41c1 -4 1 -9 1 -13c0 -29 -22 -57 -61 -66l-10 -2c-21 -4 -63 -12 -107 -22c-34 -7 -72 -16 -115 -25zM-150 861h47v-74c1 -19 17 -34 36 -35h7c19 0 34 12 37 31
l14 72l47 -9l-12 -61v-5c0 -17 14 -28 33 -28h43v113h48v-116c0 -33 -17 -49 -50 -49h-41c-24 0 -43 9 -58 27c-15 -17 -39 -27 -63 -27c-48 0 -88 39 -88 88v73zM1 1074c-4 -5 -5 -10 -5 -17v-6l18 -69l73 16c11 4 21 12 21 23v4l-10 43c-3 15 -16 21 -25 21
c-2 0 -3 -1 -5 -1l-50 -5c-7 -1 -12 -4 -17 -9z" />
    <glyph glyph-name="uniFC62" unicode="&#xfc62;" arabic-form="isolated" 
d="M-151 1007h47v-75c0 -19 15 -34 34 -35h8c19 0 34 14 37 31l15 72l46 -8l-12 -62v-5c0 -15 14 -27 33 -27h43v113h47v-117c0 -33 -16 -49 -49 -49h-41c-24 0 -43 11 -58 27c-15 -17 -39 -27 -63 -27c-48 0 -87 39 -87 88v74zM-146 700l-9 46l298 64l11 -45z" />
    <glyph glyph-name="uniFC63" unicode="&#xfc63;" arabic-form="isolated" 
d="M-149 862h47v-74c1 -19 16 -34 35 -35h7c19 0 34 12 38 31l14 72l47 -9l-12 -62v-5c0 -15 15 -27 32 -27h43v113h48v-116c0 -33 -17 -50 -50 -50h-41c-24 1 -43 11 -58 28c-15 -17 -39 -28 -63 -28c-48 0 -87 40 -87 88v74zM-25 903v136h46v-136h-46z" />
    <glyph glyph-name=".notdef" horiz-adv-x="250" 
 />
    <glyph glyph-name="uni0000" 
 />
    <glyph glyph-name="uni000D" unicode="&#xd;" horiz-adv-x="250" 
 />
    <glyph glyph-name="space" unicode=" " horiz-adv-x="130" 
 />
    <glyph glyph-name="A" unicode="A" horiz-adv-x="597" 
d="M24 0l188 691h173l188 -691h-80l-48 175h-293l-48 -175h-80zM274 622l-104 -375h257l-103 375h-50z" />
    <glyph glyph-name="B" unicode="B" horiz-adv-x="600" 
d="M75 0v692h253c139 0 204 -55 204 -179c0 -83 -30 -127 -90 -156c76 -27 111 -77 111 -168c0 -132 -73 -189 -212 -189h-266zM332 318h-179v-250h184c92 0 138 36 138 120c0 92 -59 130 -143 130zM153 385h178c83 0 124 41 124 122c0 83 -39 118 -131 118h-171v-240z" />
    <glyph glyph-name="C" unicode="C" horiz-adv-x="541" 
d="M55 345c0 163 41 355 256 355c56 0 118 -6 190 -21l-4 -71c-67 11 -123 17 -172 17c-164 0 -183 -167 -183 -290c0 -131 24 -270 197 -270c40 0 94 6 158 18l3 -72c-68 -15 -129 -22 -176 -22c-212 0 -269 163 -269 356z" />
    <glyph glyph-name="D" unicode="D" horiz-adv-x="635" 
d="M321 0h-246v691h246c203 0 259 -163 259 -331c0 -237 -83 -360 -259 -360zM161 616v-541h160c122 0 173 120 173 284c0 168 -52 257 -173 257h-160z" />
    <glyph glyph-name="E" unicode="E" horiz-adv-x="557" 
d="M502 0h-424v691h424v-75h-339v-229h279v-75h-279v-237h339v-75z" />
    <glyph glyph-name="F" unicode="F" horiz-adv-x="527" 
d="M75 -1v692h417v-75h-332v-261h279v-75h-279v-281h-85z" />
    <glyph glyph-name="G" unicode="G" horiz-adv-x="610" 
d="M69 197c-9 45 -14 96 -14 154c0 241 68 349 276 349c51 0 113 -6 184 -19l35 -6l-3 -70c-84 13 -153 20 -213 20c-149 0 -192 -97 -192 -278c0 -117 22 -282 189 -282c49 0 86 2 134 13v203h-111v75h196v-343c-88 -16 -162 -24 -223 -24c-151 0 -230 74 -258 208z" />
    <glyph glyph-name="H" unicode="H" horiz-adv-x="658" 
d="M160 1h-85v690h85v-307h338v307h85v-690h-85v308h-338v-308z" />
    <glyph glyph-name="I" unicode="I" horiz-adv-x="235" 
d="M160 0h-85v691h85v-691z" />
    <glyph glyph-name="J" unicode="J" horiz-adv-x="281" 
d="M19 -72v76c78 0 107 12 107 104v583h85v-594c0 -128 -79 -169 -192 -169z" />
    <glyph glyph-name="K" unicode="K" horiz-adv-x="565" 
d="M160 0h-85v691h85v-319l109 4l171 315h97l-193 -347l203 -344h-99l-177 302l-111 -4v-298z" />
    <glyph glyph-name="L" unicode="L" horiz-adv-x="484" 
d="M457 0h-382v691h85v-615h297v-76z" />
    <glyph glyph-name="M" unicode="M" horiz-adv-x="825" 
d="M75 691h152l186 -570l185 570h152v-691h-85v600h-13l-193 -574h-93l-193 574h-13v-600h-85v691z" />
    <glyph glyph-name="N" unicode="N" horiz-adv-x="661" 
d="M75 0v691h155l255 -617h17v617h84v-691h-152l-259 616h-15v-616h-85z" />
    <glyph glyph-name="O" unicode="O" horiz-adv-x="658" 
d="M81 141c-17 51 -26 118 -26 201c0 167 33 268 113 320c39 25 93 38 162 38c203 0 273 -111 273 -360c0 -167 -30 -265 -109 -314c-39 -25 -94 -37 -163 -37c-139 0 -217 49 -250 152zM159 506c-11 -41 -17 -95 -17 -164c0 -136 20 -212 73 -249c27 -19 65 -28 116 -28
c97 0 148 34 170 114c11 39 16 93 16 162c0 203 -44 284 -187 284c-97 0 -148 -38 -171 -119z" />
    <glyph glyph-name="P" unicode="P" horiz-adv-x="589" 
d="M160 0h-85v691h254c153 0 222 -74 222 -227c0 -157 -74 -235 -222 -235h-169v-229zM328 616h-168v-312h168c93 0 139 54 139 162c0 104 -42 150 -139 150z" />
    <glyph glyph-name="Q" unicode="Q" horiz-adv-x="673" 
d="M84 197c-9 43 -14 92 -14 145c0 248 71 358 275 358c203 0 273 -110 273 -354c0 -123 -20 -264 -112 -319l84 -136l-78 -37l-89 144c-20 -5 -46 -9 -77 -9c-156 0 -234 78 -262 208zM165 453c-5 -35 -8 -72 -8 -113c0 -117 18 -275 190 -275c148 0 185 112 185 272
c0 151 -33 288 -190 288c-109 0 -161 -69 -177 -172z" />
    <glyph glyph-name="R" unicode="R" horiz-adv-x="616" 
d="M75 0v691h258c152 0 223 -69 223 -210c0 -105 -41 -173 -123 -203l127 -278h-92l-119 260h-189v-260h-85zM160 616v-281h174c91 0 136 47 136 142c0 93 -46 139 -137 139h-173z" />
    <glyph glyph-name="S" unicode="S" horiz-adv-x="558" 
d="M71 436c-11 22 -16 49 -16 82c0 123 77 184 230 184c51 0 116 -6 204 -21l-7 -71c-84 11 -151 17 -198 17c-95 0 -143 -35 -143 -105c0 -89 83 -108 173 -132c93 -24 189 -63 189 -188c0 -141 -76 -212 -225 -212c-49 0 -116 9 -217 24l9 69c91 -12 159 -18 200 -18
c101 0 148 45 148 133c0 82 -67 100 -151 118c-92 22 -165 51 -196 120z" />
    <glyph glyph-name="T" unicode="T" horiz-adv-x="535" 
d="M227 615h-209v76h500v-76h-207v-615h-84v615z" />
    <glyph glyph-name="U" unicode="U" horiz-adv-x="624" 
d="M68 691h85v-480c0 -97 53 -146 160 -146c105 0 158 45 158 146v480h85v-479c0 -155 -81 -223 -246 -223c-164 0 -242 68 -242 223v479z" />
    <glyph glyph-name="V" unicode="V" horiz-adv-x="594" 
d="M28 691h88l154 -617h54l154 617h88l-178 -691h-182z" />
    <glyph glyph-name="W" unicode="W" horiz-adv-x="889" 
d="M28 691h88l114 -616h27l139 611h98l139 -611h28l113 616h87l-139 -691h-149l-129 582l-127 -582h-150z" />
    <glyph glyph-name="X" unicode="X" horiz-adv-x="580" 
d="M28 691h96l168 -291l170 291h90l-210 -351l210 -340h-95l-168 281l-171 -281h-90l211 337z" />
    <glyph glyph-name="Y" unicode="Y" horiz-adv-x="563" 
d="M240 289l-220 402h96l166 -318l166 318h95l-218 -402v-289h-85v289z" />
    <glyph glyph-name="Z" unicode="Z" horiz-adv-x="530" 
d="M40 691h450v-95l-352 -502v-20h352v-75h-450v93l352 502v22h-352v75z" />
    <glyph glyph-name="a" unicode="a" horiz-adv-x="501" 
d="M74 29c-24 27 -36 65 -36 114c0 97 46 140 155 151l151 14v41c0 64 -28 90 -80 90c-64 0 -130 -5 -195 -12l-3 61c73 15 137 23 194 23c117 0 167 -49 167 -162v-250c0 -23 18 -38 54 -44l-3 -66c-56 0 -92 14 -123 41c-58 -27 -116 -41 -174 -41c-48 0 -84 13 -107 40z
M141 208c-13 -14 -19 -35 -19 -63c0 -57 25 -85 74 -85c41 0 82 7 125 21l23 7v159l-141 -14c-29 -3 -49 -11 -62 -25z" />
    <glyph glyph-name="b" unicode="b" horiz-adv-x="519" 
d="M75 1v715h83v-238c53 23 96 33 147 33c131 0 179 -70 179 -258c0 -189 -65 -263 -245 -263c-49 0 -108 4 -164 11zM288 438c-35 0 -79 -9 -130 -27v-343c23 -3 79 -5 92 -5c114 0 150 54 150 191c0 138 -29 184 -112 184z" />
    <glyph glyph-name="c" unicode="c" horiz-adv-x="439" 
d="M55 251c0 153 53 260 197 260c47 0 91 -5 151 -16l-3 -67c-8 0 -82 8 -116 8c-117 0 -144 -62 -144 -188c0 -93 3 -183 143 -183l118 8l3 -68c-65 -11 -114 -16 -147 -16c-149 0 -202 77 -202 262z" />
    <glyph glyph-name="d" unicode="d" horiz-adv-x="542" 
d="M97 51c-28 41 -42 105 -42 192c0 189 61 268 209 268c39 0 76 -5 120 -14v219h83v-716h-83v31c-55 -29 -99 -42 -150 -42c-64 0 -110 21 -137 62zM140 248c0 -129 30 -186 107 -186c35 0 85 11 117 26l20 8v332c-41 8 -77 11 -105 11c-105 0 -139 -54 -139 -191z" />
    <glyph glyph-name="e" unicode="e" horiz-adv-x="507" 
d="M55 244c0 179 67 267 212 267c136 0 202 -76 202 -213v-20l-5 -58h-326c0 -115 35 -158 145 -158c40 0 93 1 137 5l30 3l2 -62c-71 -13 -133 -19 -186 -19c-156 0 -211 95 -211 255zM170 403c-21 -25 -32 -66 -33 -122h249c0 115 -35 159 -119 159c-44 0 -76 -12 -97 -37
z" />
    <glyph glyph-name="f" unicode="f" horiz-adv-x="360" 
d="M100 427h-62v71h62v44c0 144 34 184 137 184l103 -7l-2 -68c-17 1 -32 1 -45 2c-23 0 -46 1 -49 1h-4c-42 0 -57 -38 -57 -113v-43h142v-71h-142v-427h-83v427z" />
    <glyph glyph-name="g" unicode="g" horiz-adv-x="544" 
d="M55 -91c0 57 27 90 78 129c-19 13 -29 38 -29 61s13 49 34 89c-51 25 -77 75 -77 150c0 115 63 172 188 172c33 0 67 -4 104 -13l151 4v-69l-92 2c23 -24 31 -53 31 -97c0 -123 -60 -169 -189 -169c-25 0 -41 1 -54 4c-7 -15 -17 -44 -17 -60v-4c1 -27 30 -34 90 -35h21
c23 0 50 -2 60 -2c80 -5 143 -36 143 -144c0 -111 -67 -162 -234 -162c-151 0 -208 42 -208 144zM137 -80c0 -67 31 -88 130 -88c108 0 147 26 147 90c0 68 -50 85 -121 85h-104c-33 -27 -52 -47 -52 -87zM169 419c-17 -16 -26 -43 -26 -81c0 -75 32 -104 109 -104
s108 29 108 105s-31 104 -107 104c-39 0 -67 -8 -84 -24z" />
    <glyph glyph-name="h" unicode="h" horiz-adv-x="516" 
d="M75 716h83v-243c55 25 102 38 153 38c135 0 167 -88 167 -245v-265h-83v263c0 93 -7 174 -100 174c-40 0 -102 -16 -137 -29v-408h-83v715z" />
    <glyph glyph-name="i" unicode="i" horiz-adv-x="208" 
d="M146 0h-83v500h83v-500zM63 704h83v-93h-83v93z" />
    <glyph glyph-name="j" unicode="j" horiz-adv-x="216" 
d="M-48 -161c69 41 98 66 110 101c6 18 9 43 9 74v486h83v-487c0 -85 -17 -132 -64 -172c-23 -19 -58 -41 -105 -65zM71 704h83v-93h-83v93z" />
    <glyph glyph-name="k" unicode="k" horiz-adv-x="483" 
d="M68 716h83v-421l74 5l138 200h93l-159 -231l166 -269h-93l-143 227l-76 -3v-224h-83v716z" />
    <glyph glyph-name="l" unicode="l" horiz-adv-x="218" 
d="M151 0h-83v716h83v-716z" />
    <glyph glyph-name="m" unicode="m" horiz-adv-x="817" 
d="M63 499h82v-32c51 29 95 43 146 43c58 0 100 -17 125 -50c56 32 129 50 185 50c133 0 162 -108 162 -244v-265h-83v262c0 93 -8 174 -102 174c-40 0 -92 -15 -133 -35c8 -12 12 -59 12 -142v-259h-83v257c0 85 -1 179 -94 179c-40 0 -100 -17 -134 -35v-401h-83v498z" />
    <glyph glyph-name="n" unicode="n" horiz-adv-x="521" 
d="M63 499h82v-32c59 31 103 43 151 43c139 0 170 -96 170 -244v-265h-83v262c0 87 -10 174 -102 174c-44 0 -103 -19 -135 -35v-401h-83v498z" />
    <glyph glyph-name="o" unicode="o" horiz-adv-x="537" 
d="M65 138c-8 32 -12 68 -12 109c0 148 53 264 216 264c155 0 216 -103 216 -263c0 -149 -54 -259 -217 -259c-113 0 -179 54 -203 149zM138 248c0 -108 22 -187 132 -187c101 0 130 69 130 189c0 102 -21 189 -132 189c-103 0 -130 -73 -130 -191z" />
    <glyph glyph-name="p" unicode="p" horiz-adv-x="510" 
d="M63 500h82v-34c53 32 98 45 149 45c124 0 179 -77 179 -258c0 -191 -60 -264 -220 -264c-36 0 -72 4 -107 12v-222h-83v721zM146 71c47 -7 82 -10 107 -10c99 0 136 54 136 189s-36 188 -105 188c-42 0 -105 -18 -138 -37v-330z" />
    <glyph glyph-name="q" unicode="q" horiz-adv-x="511" 
d="M40 244c0 91 16 159 53 204s93 63 164 63h20l172 -11v-721h-83v242c-51 -23 -91 -32 -139 -32c-131 0 -187 74 -187 255zM123 245c0 -132 35 -183 120 -183c35 0 88 14 123 27v345c-21 0 -76 5 -89 5h-13c-102 0 -141 -59 -141 -194z" />
    <glyph glyph-name="r" unicode="r" horiz-adv-x="349" 
d="M63 0v500h82v-66c56 39 116 64 180 77v-84c-50 -8 -128 -40 -179 -64v-363h-83z" />
    <glyph glyph-name="s" unicode="s" horiz-adv-x="486" 
d="M63 308c-7 15 -10 34 -10 56c0 101 68 146 191 146c55 0 117 -9 173 -20l-2 -70c-64 9 -123 18 -171 18c-75 0 -108 -22 -108 -69c0 -42 28 -61 113 -77c78 -16 184 -41 184 -145c0 -109 -60 -158 -193 -158c-60 0 -121 10 -180 21l4 70c77 -11 134 -19 177 -19
c72 0 109 21 109 77c0 55 -71 76 -136 87c-81 14 -131 34 -151 83z" />
    <glyph glyph-name="t" unicode="t" horiz-adv-x="369" 
d="M97 429h-69v71h69v151h83v-151h153v-71h-153v-245c0 -76 3 -122 68 -122l87 5l4 -66c-49 -9 -78 -12 -105 -12c-103 0 -137 43 -137 182v258z" />
    <glyph glyph-name="u" unicode="u" horiz-adv-x="512" 
d="M55 499h83v-261c0 -93 0 -176 105 -176c37 0 79 12 126 35v402h83v-499h-83v33c-56 -31 -94 -44 -145 -44c-143 0 -169 101 -169 248v262z" />
    <glyph glyph-name="v" unicode="v" horiz-adv-x="492" 
d="M28 500h87l112 -429h37l116 429h85l-139 -500h-160z" />
    <glyph glyph-name="w" unicode="w" horiz-adv-x="758" 
d="M28 500h81l97 -429h17l113 419h86l113 -419h18l95 429h83l-116 -500h-132l-104 380l-104 -380h-131z" />
    <glyph glyph-name="x" unicode="x" horiz-adv-x="468" 
d="M183 250l-155 250h89l117 -191l117 191h90l-157 -247l156 -253h-90l-116 190l-117 -190h-89z" />
    <glyph glyph-name="y" unicode="y" horiz-adv-x="493" 
d="M28 500h81l121 -429h32l121 429h83l-204 -721h-82l63 221h-76z" />
    <glyph glyph-name="z" unicode="z" horiz-adv-x="441" 
d="M35 500h371v-73l-271 -354h271v-73h-371v73l272 354h-272v73z" />
    <glyph glyph-name="uni0640" unicode="&#x640;" horiz-adv-x="178" 
d="M-14 68c0 9 5 14 14 14h178c9 0 14 -5 14 -14v-54c0 -9 -5 -14 -14 -14h-178c-9 0 -14 5 -14 14v54z" />
    <glyph glyph-name="zero" unicode="0" horiz-adv-x="594" 
d="M55 331c0 246 79 341 241 341c163 0 243 -97 243 -341c0 -247 -80 -341 -241 -341c-164 0 -243 94 -243 341zM143 331c0 -199 46 -265 155 -265s153 66 153 265s-44 265 -153 265s-155 -66 -155 -265z" />
    <glyph glyph-name="one" unicode="1" horiz-adv-x="428" 
d="M353 0h-85v565l-166 -109l-39 64l211 140h79v-660z" />
    <glyph glyph-name="two" unicode="2" horiz-adv-x="558" 
d="M68 0v74l186 195l73 78c35 40 60 86 60 143c0 73 -42 104 -135 104c-44 0 -93 -5 -147 -15l-26 -6l-7 70c63 19 127 28 191 28c145 0 211 -57 211 -178c0 -41 -7 -74 -22 -105c-20 -43 -57 -83 -117 -142l-169 -170h324v-76h-422z" />
    <glyph glyph-name="three" unicode="3" horiz-adv-x="568" 
d="M99 10l-31 8l7 68c69 -15 125 -24 174 -24c95 0 164 35 164 127c0 73 -43 115 -131 115h-133v74h133c57 0 116 48 116 118c0 71 -39 100 -139 100c-43 0 -94 -5 -149 -16l-26 -5l-7 67c63 20 130 29 195 29c151 0 213 -52 213 -173c0 -64 -40 -124 -96 -151
c77 -29 111 -71 111 -162c0 -132 -66 -196 -221 -196c-51 0 -113 6 -180 21z" />
    <glyph glyph-name="four" unicode="4" horiz-adv-x="561" 
d="M40 127v65l185 468h92l-189 -459h227v203h85v-203h81v-74h-81v-127h-85v127h-315z" />
    <glyph glyph-name="five" unicode="5" horiz-adv-x="578" 
d="M101 14l-33 7l9 66c75 -14 141 -21 196 -21c99 0 150 53 150 149c0 88 -44 126 -133 126c-56 0 -114 -24 -139 -37l-13 -7l-59 10l18 353h387v-76h-317l-18 -207c51 27 100 40 159 40c133 0 202 -66 202 -199c0 -145 -80 -228 -221 -228c-57 0 -123 9 -188 24z" />
    <glyph glyph-name="six" unicode="6" horiz-adv-x="605" 
d="M68 324c0 237 93 347 258 347c60 0 126 -9 185 -20l-8 -67c-63 8 -121 12 -175 12c-111 0 -171 -77 -171 -218c49 16 118 37 159 37c148 0 222 -68 222 -203c0 -145 -83 -223 -226 -223c-165 0 -244 114 -244 335zM156 304c0 -153 48 -240 147 -240c97 0 147 50 147 142
c0 91 -49 135 -138 135c-43 0 -116 -21 -156 -37z" />
    <glyph glyph-name="seven" unicode="7" horiz-adv-x="527" 
d="M479 552l-251 -563l-80 25l246 543v27h-326v76h411v-108z" />
    <glyph glyph-name="eight" unicode="8" horiz-adv-x="601" 
d="M297 -11c-163 0 -244 61 -244 182c0 81 37 130 109 173c-69 36 -98 80 -98 147c0 132 131 180 234 180c132 0 240 -58 240 -181c0 -71 -28 -109 -105 -146c79 -39 115 -83 115 -166c0 -125 -83 -189 -251 -189zM168 260c-17 -19 -25 -44 -25 -75c0 -79 52 -118 156 -118
c106 0 159 40 159 121c0 64 -34 93 -109 114h-104c-35 -9 -61 -23 -77 -42zM153 488c0 -55 28 -87 92 -110h104c69 23 99 55 99 111c0 70 -49 105 -147 105c-99 0 -148 -35 -148 -106z" />
    <glyph glyph-name="nine" unicode="9" horiz-adv-x="570" 
d="M114 298c-36 33 -54 81 -54 146c0 142 91 227 230 227c160 0 241 -118 241 -346c0 -235 -87 -336 -266 -336c-45 0 -98 7 -154 16l-27 4l8 67c64 -9 120 -12 175 -12c115 0 174 74 176 222c-69 -27 -121 -38 -172 -38c-69 0 -122 17 -157 50zM185 558
c-25 -26 -37 -62 -37 -108c0 -85 44 -127 132 -127c44 0 89 10 138 26l25 8c-1 159 -53 239 -156 239c-43 0 -77 -13 -102 -38z" />
    <glyph glyph-name="uni0660" unicode="&#x660;" horiz-adv-x="273" 
d="M76 52v120h120v-120h-120z" />
    <glyph glyph-name="uni0661" unicode="&#x661;" horiz-adv-x="253" 
d="M87 597l-12 59l70 13l13 -68c13 -61 19 -124 19 -189v-412h-71v413c0 63 -7 123 -19 184z" />
    <glyph glyph-name="uni0662" unicode="&#x662;" horiz-adv-x="523" 
d="M88 597l-12 59l70 13l4 -16c6 -30 21 -96 25 -157c3 -33 36 -57 71 -57h147v228h72v-220c0 -53 -35 -90 -90 -90h-119c-32 0 -58 13 -77 34v-391h-72v413c0 63 -7 123 -19 184z" />
    <glyph glyph-name="uni0663" unicode="&#x663;" horiz-adv-x="694" 
d="M75 656l70 13c0 -3 20 -87 28 -171c0 -25 27 -59 71 -59h14c39 0 71 27 78 63l32 159l70 -13l-27 -133v-7c0 -33 26 -69 69 -69h85v228h71v-212c0 -55 -42 -98 -97 -98h-59c-45 0 -83 21 -108 54c-27 -33 -66 -54 -115 -54c-31 0 -57 9 -80 32v-389h-71v413
c0 63 -6 125 -19 184z" />
    <glyph glyph-name="uni0664" unicode="&#x664;" horiz-adv-x="462" 
d="M86 81c-7 16 -11 33 -11 52l1 79c0 60 27 103 66 131c-23 20 -38 45 -44 74l-18 92c-2 9 -3 18 -3 26c0 22 6 53 30 82c24 28 61 47 102 47h130v-76h-137c-38 0 -55 -40 -55 -58c0 -4 0 -8 1 -12l15 -80c6 -33 43 -57 58 -57c2 0 5 0 7 1l117 33l20 -69l-156 -47
c-36 -11 -64 -46 -65 -85v-76v-3c0 -31 26 -56 59 -56h197v-79h-192c-55 0 -102 34 -122 81z" />
    <glyph glyph-name="uni0665" unicode="&#x665;" horiz-adv-x="593" 
d="M64 107c-6 21 -9 43 -9 67c0 168 78 259 188 377l-63 58l45 61l115 -108c112 -107 197 -207 197 -388c0 -96 -46 -173 -154 -173h-174c-81 0 -127 43 -145 106zM126 173c0 -56 25 -91 73 -91h194c49 0 73 35 73 91c0 130 -37 204 -170 329c-133 -127 -170 -199 -170 -329
z" />
    <glyph glyph-name="uni0666" unicode="&#x666;" horiz-adv-x="520" 
d="M33 591l7 74c15 -3 117 -13 186 -13c85 0 181 15 188 17v-412c0 -63 7 -123 19 -184l13 -60l-70 -12l-14 67c-13 64 -19 126 -19 190v320c-20 0 -105 -5 -128 -5c-71 0 -165 15 -182 18z" />
    <glyph glyph-name="uni0667" unicode="&#x667;" horiz-adv-x="569" 
d="M38 625l59 48c13 -15 154 -223 189 -518c13 183 113 433 188 518l59 -48c-13 -19 -174 -216 -214 -624h-67c-60 437 -202 604 -214 624z" />
    <glyph glyph-name="uni0668" unicode="&#x668;" horiz-adv-x="569" 
d="M96 1l-59 48c13 18 155 189 214 624h67c40 -408 201 -605 214 -624l-59 -48c-75 85 -175 335 -188 518c-35 -295 -176 -503 -189 -518z" />
    <glyph glyph-name="uni0669" unicode="&#x669;" horiz-adv-x="496" 
d="M51 409c-3 11 -5 22 -5 33c0 9 1 18 3 27l17 91c12 63 65 106 129 106h56c77 0 140 -62 140 -139v-271v-16c0 -52 6 -107 19 -168l12 -60l-68 -13l-14 68c-13 64 -18 126 -18 190v63c-8 -4 -21 -8 -38 -8h-106c-62 0 -113 40 -127 97zM116 459c0 -3 -1 -6 -1 -9
c0 -22 18 -57 55 -57h152v134c0 37 -29 63 -64 63h-65c-31 0 -55 -21 -62 -50z" />
    <glyph glyph-name="uni06F0" unicode="&#x6f0;" horiz-adv-x="459" 
d="M65 242c0 77 63 140 140 140h49c77 0 140 -63 140 -140v-51c0 -76 -63 -139 -140 -139h-49c-77 0 -140 63 -140 139v51zM137 196c0 -35 28 -63 63 -63h59c36 0 64 28 64 63v47c0 36 -28 63 -64 63h-59c-35 0 -63 -27 -63 -63v-47z" />
    <glyph glyph-name="uni06F1" unicode="&#x6f1;" horiz-adv-x="250" 
d="M88 597l-13 59l68 13l13 -68c13 -61 19 -124 19 -189v-412h-68v413c0 63 -7 123 -19 184z" />
    <glyph glyph-name="uni06F2" unicode="&#x6f2;" horiz-adv-x="526" 
d="M88 597l-13 59l68 13l4 -16c6 -30 21 -96 25 -157c3 -33 36 -57 71 -57h147v228h72v-220c0 -53 -35 -90 -90 -90h-117c-31 0 -56 9 -79 37v-394h-69v413c0 63 -7 123 -19 184z" />
    <glyph glyph-name="uni06F3" unicode="&#x6f3;" horiz-adv-x="696" 
d="M88 597l-13 59l68 13c0 -3 20 -87 28 -171c0 -25 27 -59 71 -59h14c39 0 71 27 78 63l32 159l67 -13l-26 -133v-8c0 -32 25 -68 69 -68h89v228h69v-220c0 -53 -34 -90 -90 -90h-66c-45 0 -84 21 -108 58c-27 -37 -63 -58 -114 -58c-29 0 -58 9 -81 36v-393h-68v413
c0 63 -7 123 -19 184z" />
    <glyph glyph-name="uni06F4" unicode="&#x6f4;" horiz-adv-x="630" 
d="M75 656l67 12c9 -43 22 -107 29 -171c7 -35 35 -60 70 -60h44c-5 8 -8 17 -10 27l-2 10c-4 19 -9 56 -13 72c-2 9 -2 17 -2 25c0 23 7 55 31 84c24 28 60 47 100 47h134l-1 -74h-141c-39 0 -56 -30 -56 -55c0 -4 0 -8 1 -12l23 -120l58 5c23 2 45 4 67 6c26 3 53 6 80 9
l11 -69c-43 -5 -218 -35 -313 -35c-28 0 -54 8 -77 31v-388h-69v412c0 80 -15 165 -31 244z" />
    <glyph glyph-name="uni06F5" unicode="&#x6f5;" horiz-adv-x="682" 
d="M70 174c0 183 109 306 219 408l-38 35l45 57l108 -97c85 -77 209 -207 209 -403c0 -95 -49 -174 -152 -174c-51 0 -85 21 -120 61c-35 -40 -71 -61 -120 -61c-107 0 -151 81 -151 174zM157 280c-10 -32 -15 -68 -15 -107c0 -49 20 -92 73 -92h12c39 0 71 25 80 68l22 93
l70 -12l-21 -89c8 -26 40 -60 77 -60h12c55 0 74 41 74 92c0 163 -75 247 -200 362c-90 -86 -156 -158 -184 -255z" />
    <glyph glyph-name="uni06F6" unicode="&#x6f6;" horiz-adv-x="585" 
d="M138 -8l-63 40l205 291c-13 0 -38 13 -49 21l-103 79c-33 27 -46 63 -46 97c0 5 -2 28 16 65c9 19 21 34 37 47l114 89l35 -51l-115 -97c-27 -23 -22 -45 -22 -47c0 -16 6 -28 19 -38l150 -112c35 50 74 96 118 139l50 47l53 -49l-44 -42c-51 -48 -73 -74 -121 -141z" />
    <glyph glyph-name="uni06F7" unicode="&#x6f7;" horiz-adv-x="569" 
d="M38 625l59 48c28 -44 54 -92 78 -143c43 -88 89 -208 110 -339c20 131 66 251 109 339c25 51 51 99 80 143l59 -48c-33 -51 -64 -109 -93 -174c-48 -109 -102 -266 -121 -450h-67c-23 195 -76 349 -124 457c-28 63 -58 119 -90 167z" />
    <glyph glyph-name="uni06F8" unicode="&#x6f8;" horiz-adv-x="569" 
d="M97 0l-59 48c32 48 62 104 90 167c48 108 101 262 124 457h67c19 -184 73 -341 121 -450c29 -65 60 -123 93 -174l-59 -48c-29 44 -55 92 -80 144c-43 88 -89 207 -109 338c-21 -131 -67 -250 -110 -338c-24 -52 -50 -100 -78 -144z" />
    <glyph glyph-name="uni06F9" unicode="&#x6f9;" horiz-adv-x="488" 
d="M50 409c-3 11 -5 22 -5 33c0 9 1 18 3 27l17 91c12 63 65 106 129 106h56c77 0 140 -62 140 -139v-271v-16c0 -52 6 -107 19 -168l12 -60l-68 -12l-14 67c-13 64 -19 126 -19 190l1 63c-8 -4 -21 -8 -38 -8h-106c-62 0 -113 40 -127 97zM115 459c0 -3 -1 -6 -1 -9
c0 -22 18 -57 55 -57h152v134c0 37 -29 63 -64 63h-65c-31 0 -55 -21 -62 -50z" />
    <glyph glyph-name="period" unicode="." horiz-adv-x="237" 
d="M160 0h-82v108h82v-108z" />
    <glyph glyph-name="comma" unicode="," horiz-adv-x="277" 
d="M88 -8c-9 9 -13 20 -13 33c0 21 12 55 16 70l43 122l52 -19l-46 -133l62 -24l-32 -93c-23 8 -40 15 -55 24c-9 5 -18 11 -27 20z" />
    <glyph glyph-name="colon" unicode=":" horiz-adv-x="236" 
d="M160 0h-82v109h82v-109zM78 439h82v-109h-82v109z" />
    <glyph glyph-name="semicolon" unicode=";" horiz-adv-x="272" 
d="M137 53l-62 23l30 87c23 -8 41 -14 56 -23c20 -12 36 -30 36 -53c0 -20 -12 -54 -17 -69l-42 -118l-48 17zM87 432h79v-103h-79v103z" />
    <glyph glyph-name="hyphen" unicode="-" horiz-adv-x="452" 
d="M377 236h-302v77h302v-77z" />
    <glyph glyph-name="plus" unicode="+" horiz-adv-x="602" 
d="M75 214v75h187v191h76v-191h189v-75h-189v-194h-76v194h-187z" />
    <glyph glyph-name="asterisk" unicode="*" horiz-adv-x="565" 
d="M230 254l-155 154l53 53l155 -155l154 155l53 -53l-155 -154l155 -155l-53 -53l-154 156l-155 -156l-53 53z" />
    <glyph glyph-name="asciicircum" unicode="^" horiz-adv-x="530" 
d="M40 318l186 342h73l191 -342h-87l-139 261l-136 -261h-88z" />
    <glyph glyph-name="tilde" unicode="&#x2dc;" horiz-adv-x="577" 
d="M83 205l-11 68c40 35 79 53 117 53c19 0 53 -9 104 -29c48 -20 79 -30 93 -30c29 0 80 29 105 45l10 -67c-39 -33 -81 -53 -116 -53c-19 0 -54 10 -103 30c-51 20 -82 30 -94 30c-27 0 -81 -31 -105 -47z" />
    <glyph glyph-name="slash" unicode="/" horiz-adv-x="432" 
d="M394 682l-283 -698l-73 26l283 700z" />
    <glyph glyph-name="less" unicode="&#x3c;" horiz-adv-x="494" 
d="M454 12l-414 204v71l414 201v-86l-329 -149l329 -154v-87z" />
    <glyph glyph-name="equal" unicode="=" horiz-adv-x="583" 
d="M508 307h-433v76h433v-76zM75 195h433v-76h-433v76z" />
    <glyph glyph-name="greater" unicode="&#x3e;" horiz-adv-x="495" 
d="M40 99l329 154l-329 149v86l415 -201v-71l-415 -204v87z" />
    <glyph glyph-name="exclam" unicode="!" horiz-adv-x="238" 
d="M160 0h-82v108h82v-108zM156 231h-75l-6 460h87z" />
    <glyph glyph-name="question" unicode="?" horiz-adv-x="513" 
d="M76 604l-6 67c67 20 122 30 165 30h8c133 -3 200 -39 200 -154c0 -89 -18 -122 -90 -183c-45 -37 -93 -80 -93 -126v-35h-68l-2 7c-5 10 -15 40 -15 61c0 55 81 112 116 147c56 53 65 69 65 121c0 60 -40 87 -128 87c-31 0 -81 -7 -152 -22zM183 1v108h82v-108h-82z" />
    <glyph glyph-name="quotesingle" unicode="'" horiz-adv-x="222" 
d="M146 466h-73l-3 225h82z" />
    <glyph glyph-name="quotedbl" unicode="&#x22;" horiz-adv-x="396" 
d="M70 691h82l-6 -225h-73zM244 691h81l-5 -225h-73z" />
    <glyph glyph-name="numbersign" unicode="#" horiz-adv-x="665" 
d="M75 241h110v178h-110v70h110v176h74v-176h147v176h74v-176h110v-70h-110v-178h110v-70h-110v-171h-74v171h-147v-171h-74v171h-110v70zM406 419h-147v-178h147v178z" />
    <glyph glyph-name="at" unicode="@" horiz-adv-x="1035" 
d="M102 55c-18 59 -27 126 -27 202c0 323 156 467 452 467c299 0 433 -147 433 -436c0 -135 -30 -293 -173 -293c-65 0 -107 20 -125 61c-64 -40 -121 -61 -178 -61c-101 0 -169 55 -169 243c0 190 53 267 200 267c32 0 80 -14 112 -26v15h84v-225c0 -168 2 -203 79 -203
c83 0 86 142 86 227c0 244 -97 359 -349 359c-249 0 -368 -120 -368 -399c0 -236 82 -385 369 -385l143 10l4 -73c-35 -3 -121 -9 -148 -9c-12 0 -23 -1 -34 -1c-128 0 -234 33 -308 112c-37 40 -65 89 -83 148zM399 246c0 -118 32 -177 96 -177c29 0 75 15 140 44
c-5 35 -8 88 -8 164v136c-39 13 -74 19 -106 19c-93 0 -122 -54 -122 -186z" />
    <glyph glyph-name="dollar" unicode="$" horiz-adv-x="581" 
d="M90 412c-10 21 -15 48 -15 81c0 104 59 181 221 181h17l17 126h50l-18 -129c27 -3 102 -15 127 -20l-7 -69c-27 3 -105 10 -129 13l-30 -228c134 -35 183 -71 183 -175c0 -133 -77 -206 -218 -206h-13l-13 -110c-35 3 -49 3 -49 6l14 106c-30 5 -114 20 -144 25l9 66
c29 -3 125 -12 144 -15l30 234c-81 20 -148 47 -176 114zM161 497v-6c0 -61 34 -85 116 -107l27 213c-77 0 -143 -9 -143 -100zM313 285l-27 -222c92 0 135 42 135 118c0 66 -31 80 -108 104z" />
    <glyph glyph-name="Euro" unicode="&#x20ac;" horiz-adv-x="636" 
d="M75 449h64c16 160 84 230 236 230c60 0 120 -9 185 -24l-2 -67c-63 11 -120 16 -172 16c-107 0 -149 -43 -162 -155h280v-65h-285v-94h285v-64h-280c12 -111 55 -162 162 -162c53 0 109 6 172 17l3 -70c-66 -14 -128 -21 -185 -21c-155 0 -219 79 -238 236h-63v64h60v94
h-60v65z" />
    <glyph glyph-name="percent" unicode="%" horiz-adv-x="587" 
d="M152 390c-75 0 -112 47 -112 142c0 93 37 139 112 139s112 -46 112 -139c0 -95 -40 -142 -112 -142zM353 26c-19 24 -28 60 -28 107c0 91 37 137 111 137s111 -46 111 -137c0 -95 -40 -144 -112 -144c-36 0 -63 12 -82 37zM165 -4l209 687l50 -17l-207 -686zM102 533
c0 -59 17 -88 50 -88s50 29 50 88c0 55 -17 83 -50 83s-50 -28 -50 -83zM399 197c-8 -13 -12 -35 -12 -64c0 -63 15 -89 50 -89s48 28 48 88s-13 84 -48 84c-18 0 -31 -6 -38 -19z" />
    <glyph glyph-name="ampersand" unicode="&#x26;" horiz-adv-x="751" 
d="M75 203c0 114 47 165 155 200c-43 47 -59 84 -59 139c0 105 64 160 179 160s176 -54 176 -154c0 -93 -56 -147 -152 -191l145 -142c15 41 22 98 27 157l80 -2c-11 -84 -26 -151 -47 -206l127 -119l-49 -55l-119 111c-52 -77 -122 -112 -222 -112c-168 0 -241 73 -241 214
zM166 262c-5 -15 -7 -33 -7 -53c0 -100 51 -144 156 -144c81 0 137 28 166 83l-205 204c-62 -20 -96 -45 -110 -90zM278 608c-16 -15 -24 -35 -24 -61c0 -56 39 -108 72 -141c57 24 116 65 116 140c0 53 -29 83 -93 83c-32 0 -56 -7 -71 -21z" />
    <glyph glyph-name="parenleft" unicode="(" horiz-adv-x="300" 
d="M84 197c-6 37 -9 73 -9 106c0 135 38 290 105 447h80c-43 -115 -95 -314 -95 -454c0 -119 44 -288 95 -421h-80c-43 91 -80 210 -96 322z" />
    <glyph glyph-name="parenright" unicode=")" horiz-adv-x="300" 
d="M120 -125h-80c51 133 95 302 95 421c0 139 -50 341 -95 454h80c67 -157 105 -312 105 -447s-48 -307 -105 -428z" />
    <glyph glyph-name="braceleft" unicode="{" horiz-adv-x="376" 
d="M40 345c76 17 108 50 108 107l-7 128v8c0 111 50 163 189 168l1 -71c-83 -5 -109 -37 -109 -106v-4l7 -123c0 -86 -23 -117 -106 -139c83 -24 105 -62 105 -132v-10l-7 -117c0 -73 27 -107 110 -112l-2 -71c-137 5 -188 57 -188 167v8l7 121c0 57 -32 92 -108 112v66z
" />
    <glyph glyph-name="bar" unicode="|" horiz-adv-x="220" 
d="M154 -220h-82v936h82v-936z" />
    <glyph glyph-name="braceright" unicode="}" horiz-adv-x="379" 
d="M49 685l1 71c139 -5 189 -53 189 -176l-7 -128v-3c0 -55 31 -87 107 -104v-66c-76 -20 -107 -54 -107 -109v-3l7 -121c0 -121 -51 -170 -188 -175l-2 71c83 5 110 39 110 112l-7 117v10c0 70 22 108 105 132c-84 22 -106 57 -106 129v10l7 123v4c0 69 -28 101 -109 106z
" />
    <glyph glyph-name="bracketleft" unicode="[" horiz-adv-x="331" 
d="M290 -123h-215v872h215v-73h-131v-726h131v-73z" />
    <glyph glyph-name="backslash" unicode="\" horiz-adv-x="458" 
d="M421 14l-74 -31l-309 693l73 32z" />
    <glyph glyph-name="bracketright" unicode="]" horiz-adv-x="330" 
d="M172 676h-132v73h215v-872h-215v73h132v726z" />
    <glyph glyph-name="quoteleft" unicode="&#x2018;" horiz-adv-x="211" 
d="M127 482h-87l67 223h64z" />
    <glyph glyph-name="quoteright" unicode="&#x2019;" horiz-adv-x="211" 
d="M105 482h-65l44 222h87z" />
    <glyph glyph-name="quotedblleft" unicode="&#x201c;" horiz-adv-x="368" 
d="M196 482l67 223h65l-44 -223h-88zM127 482h-87l67 223h64z" />
    <glyph glyph-name="quotedblright" unicode="&#x201d;" horiz-adv-x="368" 
d="M196 483l45 222h87l-67 -222h-65zM105 483h-65l44 222h87z" />
    <glyph glyph-name="quotesinglbase" unicode="&#x201a;" horiz-adv-x="185" 
d="M126 -110h-86l66 223h65z" />
    <glyph glyph-name="quotedblbase" unicode="&#x201e;" horiz-adv-x="368" 
d="M197 -110l66 223h65l-45 -223h-86zM126 -110h-86l66 223h65z" />
    <glyph glyph-name="bullet" unicode="&#x2022;" horiz-adv-x="428" 
d="M339 397v-288h-250v288h250z" />
    <glyph glyph-name="underscore" unicode="_" horiz-adv-x="578" 
d="M503 -162h-428v72h428v-72z" />
    <glyph glyph-name="endash" unicode="&#x2013;" horiz-adv-x="650" 
d="M575 232h-500v72h500v-72z" />
    <glyph glyph-name="emdash" unicode="&#x2014;" horiz-adv-x="1150" 
d="M1075 232h-1000v72h1000v-72z" />
    <glyph glyph-name="trademark" unicode="&#x2122;" horiz-adv-x="659" 
d="M358 331h-56v301h76l63 -202l68 202h74v-301h-56v218l-62 -202h-45l-62 202v-218zM72 578v54h200v-54h-63v-246h-59v246h-78z" />
    <glyph glyph-name="registered" unicode="&#xae;" horiz-adv-x="675" 
d="M72 435c0 51 11 97 34 139c47 84 131 134 232 134c50 0 95 -12 135 -36c81 -48 129 -135 129 -238c0 -52 -11 -99 -34 -140c-45 -84 -129 -134 -229 -134c-51 0 -96 12 -136 36c-83 49 -131 136 -131 239zM147 550c-19 -35 -29 -74 -29 -115c0 -84 41 -159 109 -199
c33 -20 70 -30 111 -30s77 10 110 30c68 40 108 114 108 198c0 41 -10 79 -29 116c-39 71 -109 113 -190 113c-41 0 -78 -10 -111 -30c-34 -21 -60 -48 -79 -83zM226 281v305h113c76 0 114 -30 114 -90c0 -59 -13 -81 -49 -100l53 -115h-64l-47 106h-60v-106h-60zM333 535
h-48v-99h58c35 0 49 15 49 50c0 33 -20 49 -59 49z" />
    <glyph glyph-name="copyright" unicode="&#xa9;" horiz-adv-x="675" 
d="M107 295c-23 42 -35 89 -35 140s11 97 34 139c47 84 131 134 232 134c50 0 95 -12 135 -36c81 -49 129 -138 129 -239c0 -52 -11 -98 -34 -139c-45 -84 -129 -134 -229 -134c-51 0 -96 12 -136 36c-41 24 -73 57 -96 99zM118 434c0 -83 42 -158 108 -198
c33 -20 70 -30 111 -30s78 10 111 30c68 40 108 114 108 198c0 83 -41 158 -108 199c-33 20 -70 30 -111 30c-62 0 -114 -22 -156 -66c-42 -46 -63 -100 -63 -163zM223 434c0 115 32 158 120 158c25 0 48 -3 67 -8l10 -3l-4 -57c-25 4 -48 6 -71 6c-43 0 -56 -24 -56 -93
c0 -72 14 -100 57 -100l70 6l4 -55c-23 -9 -50 -13 -80 -13c-85 0 -117 46 -117 159z" />
    <glyph glyph-name="currency" unicode="&#xa4;" horiz-adv-x="601" 
d="M146 349l-71 71l58 58l70 -71c29 19 61 28 97 28c35 0 67 -9 98 -28l71 71l57 -58l-71 -71c19 -31 29 -64 29 -98c0 -35 -10 -67 -29 -96l71 -71l-57 -57l-71 71c-31 -19 -64 -29 -98 -29c-35 0 -68 10 -97 29l-70 -72l-58 58l71 71c-19 29 -28 61 -28 96s9 67 28 98z
M198 295c-6 -13 -9 -28 -9 -43c0 -30 11 -56 33 -78c23 -22 50 -33 79 -33c60 0 112 52 112 111c0 60 -52 112 -112 112c-45 0 -85 -29 -103 -69z" />
    <glyph glyph-name="cent" unicode="&#xa2;" horiz-adv-x="438" 
d="M15 247c0 145 56 211 177 219v116h71v-120l98 -11l-3 -66c-47 4 -100 7 -129 7h-4c-90 0 -124 -39 -124 -144c0 -106 31 -139 135 -139l123 6l3 -66c-41 -7 -72 -11 -99 -11v-118h-71l1 115c-125 8 -178 64 -178 212z" />
    <glyph glyph-name="sterling" unicode="&#xa3;" horiz-adv-x="551" 
d="M72 0v72h84v276h-66v71h66v55c0 132 26 196 150 196c43 0 93 -7 136 -18l-1 -66c-57 7 -94 11 -121 11c-76 0 -84 -58 -84 -131v-47h169v-71h-169v-276h150l77 16l13 -70l-81 -18h-323z" />
    <glyph glyph-name="yen" unicode="&#xa5;" horiz-adv-x="669" 
d="M245 383l-170 277h95l165 -263l164 263h95l-168 -277h130v-68h-178v-89h179v-66h-179v-160h-84v160h-182v66h182v89h-182v68h133z" />
    <glyph glyph-name="minus" unicode="&#x2212;" horiz-adv-x="579" 
d="M504 214h-429v75h429v-75z" />
    <glyph glyph-name="plusminus" unicode="&#xb1;" horiz-adv-x="603" 
d="M75 294v75h187v123h76v-123h189v-75h-189v-124h-76v124h-187zM527 36h-452v75h452v-75z" />
    <glyph glyph-name="multiply" unicode="&#xd7;" horiz-adv-x="565" 
d="M230 254l-155 154l53 53l155 -155l154 155l53 -53l-155 -154l155 -155l-53 -53l-154 156l-155 -156l-53 53z" />
    <glyph glyph-name="divide" unicode="&#xf7;" horiz-adv-x="487" 
d="M75 384h337v-79h-337v79zM203 113v105h82v-105h-82zM203 575h82v-104h-82v104z" />
    <glyph glyph-name="brokenbar" unicode="&#xa6;" horiz-adv-x="220" 
d="M72 158h82v-378h-82v378zM154 342h-82v374h82v-374z" />
    <glyph glyph-name="ellipsis" unicode="&#x2026;" horiz-adv-x="746" 
d="M78 108h82v-108h-82v108zM331 0v108h82v-108h-82zM587 0v108h81v-108h-81z" />
    <glyph glyph-name="periodcentered" unicode="&#xb7;" horiz-adv-x="237" 
d="M160 233h-82v108h82v-108z" />
    <glyph glyph-name="exclamdown" unicode="&#xa1;" horiz-adv-x="238" 
d="M162 -191h-87l6 461h75zM160 391h-82v109h82v-109z" />
    <glyph glyph-name="questiondown" unicode="&#xbf;" horiz-adv-x="513" 
d="M70 -45c0 88 18 124 90 183c45 37 92 80 92 126v35h68c3 -7 6 -15 9 -23c5 -13 9 -30 9 -45c0 -54 -80 -112 -117 -147c-55 -53 -64 -70 -64 -121c0 -60 40 -87 128 -87c28 0 80 7 152 22l5 -67c-65 -20 -123 -30 -164 -30h-8c-133 3 -200 39 -200 154zM247 393v108h82
v-108h-82z" />
    <glyph glyph-name="degree" unicode="&#xb0;" horiz-adv-x="434" 
d="M72 559c0 84 58 141 142 141c85 0 145 -57 145 -141c0 -85 -60 -142 -145 -142c-84 0 -142 55 -142 142zM127 559c0 -56 35 -91 87 -91c55 0 91 36 91 91s-36 91 -91 91c-52 0 -87 -38 -87 -91z" />
    <glyph glyph-name="fraction" unicode="&#x2044;" horiz-adv-x="126" 
d="M224 633l-393 -631l-40 26l392 632z" />
    <glyph glyph-name="paragraph" unicode="&#xb6;" horiz-adv-x="666" 
d="M72 506c0 107 79 185 187 185h330v-72h-68v-619h-74v619h-108v-619h-74v319h-7c-107 0 -186 81 -186 187z" />
    <glyph glyph-name="section" unicode="&#xa7;" horiz-adv-x="537" 
d="M72 250c0 36 30 103 59 127c-29 21 -44 58 -44 110c0 108 65 162 195 162c48 0 115 -10 166 -17l-5 -69c-72 10 -127 15 -165 15c-76 0 -111 -26 -111 -89c0 -64 53 -78 137 -94c87 -16 165 -48 165 -145c0 -45 -15 -90 -45 -134c25 -21 37 -54 37 -101
c0 -114 -64 -171 -193 -171c-59 0 -121 10 -177 19l7 68c73 -10 128 -15 165 -15c80 0 120 31 120 94c0 72 -96 81 -146 91c-104 21 -165 53 -165 149zM185 348c-20 -35 -30 -64 -30 -89c0 -52 25 -70 110 -86c45 -11 77 -18 96 -26c14 19 24 62 24 98c-3 47 -26 65 -108 81
c-25 4 -68 13 -92 22z" />
    <glyph glyph-name="dagger" unicode="&#x2020;" horiz-adv-x="559" 
d="M237 428h-165v72h165v190h82v-190h165v-72h-165l-5 -503h-72z" />
    <glyph glyph-name="daggerdbl" unicode="&#x2021;" horiz-adv-x="560" 
d="M237 428h-165v72h165v190h83v-190h164v-72h-164v-242h165v-71h-165v-190h-83v190h-165v71h165v242z" />
    <glyph glyph-name="asciitilde" unicode="~" horiz-adv-x="577" 
d="M83 205l-11 68c40 35 79 53 117 53c19 0 53 -9 104 -29c48 -20 79 -30 93 -30c29 0 80 29 105 45l10 -67c-39 -33 -81 -53 -116 -53c-19 0 -54 10 -103 30c-51 20 -82 30 -94 30c-27 0 -81 -31 -105 -47z" />
    <glyph glyph-name="guilsinglleft" unicode="&#x2039;" horiz-adv-x="273" 
d="M233 61l-193 154v65l193 145v-84l-122 -92l122 -103v-85z" />
    <glyph glyph-name="guilsinglright" unicode="&#x203a;" horiz-adv-x="273" 
d="M40 148l122 102l-122 92v84l193 -145v-65l-193 -153v85z" />
    <glyph glyph-name="guillemotleft" unicode="&#xab;" horiz-adv-x="517" 
d="M284 215v65l193 146v-85l-122 -92l122 -102v-86zM40 280l193 146v-85l-122 -92l122 -102v-86l-193 154v65z" />
    <glyph glyph-name="guillemotright" unicode="&#xbb;" horiz-adv-x="517" 
d="M284 146l122 103l-122 92v84l193 -145v-65l-193 -154v85zM162 249l-122 92v84l193 -145v-65l-193 -154v85z" />
    <glyph glyph-name="uniFBB2" unicode="&#xfbb2;" 
d="M360 2l-85 -1v84h85v-83z" />
    <glyph glyph-name="uniFBB3" unicode="&#xfbb3;" 
d="M360 -85h-84l-1 85h85v-85z" />
    <glyph glyph-name="uniFBB4" unicode="&#xfbb4;" 
d="M434 0h-85v85h85v-85zM297 0h-85v85h85v-85z" />
    <glyph glyph-name="uniFBB5" unicode="&#xfbb5;" 
d="M434 -85h-85v85h85v-85zM297 -85h-85v85h85v-85z" />
    <glyph glyph-name="uniFBB6" unicode="&#xfbb6;" 
d="M347 0v85h85v-85h-85zM276 122v85h85v-85h-85zM295 0h-85v85h85v-85z" />
    <glyph glyph-name="uniFBB7" unicode="&#xfbb7;" 
d="M349 -85v85h85v-85h-85zM282 -207v85h85v-85h-85zM297 -85h-85v85h85v-85z" />
    <glyph glyph-name="uniFBB7" unicode="&#xfbb9;" 
d="M349 -85v85h85v-85h-85zM282 -207v85h85v-85h-85zM297 -85h-85v85h85v-85z" />
    <glyph glyph-name="uniFBB7" unicode="&#xfbb9;" 
d="M349 -85v85h85v-85h-85zM282 -207v85h85v-85h-85zM297 -85h-85v85h85v-85z" />
    <glyph glyph-name="uni0653" unicode="&#x653;" 
d="M-134 700v38c0 40 37 77 77 77h190v-61h-191c-15 0 -25 -12 -25 -25v-29h-51z" />
    <glyph glyph-name="uni0653" unicode="&#x6e4;" 
d="M-134 700v38c0 40 37 77 77 77h190v-61h-191c-15 0 -25 -12 -25 -25v-29h-51z" />
    <glyph glyph-name="uni0653" unicode="&#x6e4;" 
d="M-134 700v38c0 40 37 77 77 77h190v-61h-191c-15 0 -25 -12 -25 -25v-29h-51z" />
    <glyph glyph-name="uni0670" unicode="&#x670;" 
d="M23 835v-136h-46v136h46z" />
    <glyph glyph-name="uni0656" unicode="&#x656;" 
d="M23 0v-136h-46v136h46z" />
    <glyph glyph-name="uni0654" unicode="&#x654;" 
d="M-141 748l81 14c0 1 -6 8 -9 23c-1 3 -2 8 -3 16l-3 18c-1 6 -2 12 -2 18c0 17 6 38 21 57c16 19 39 29 59 32l76 9l7 -52l-80 -9c-23 -3 -37 -17 -37 -37c0 -3 0 -7 1 -11l11 -56c20 5 57 12 89 19c18 4 37 8 58 12l12 -45l-272 -56z" />
    <glyph glyph-name="uni0655" unicode="&#x655;" 
d="M-140 -188l81 15c-1 0 -7 7 -10 22l-1 5c-2 9 -5 26 -5 28c-1 6 -2 13 -2 18c0 18 6 39 21 58c16 19 39 30 59 33l76 8l7 -52l-83 -10c-19 -3 -34 -16 -34 -34c0 -4 0 -7 1 -11l11 -57c21 4 57 11 89 18c19 4 38 8 58 13l13 -46l-273 -56z" />
    <glyph glyph-name="uniFE70FE7C" 
d="M-150 788v74h47v-74c0 -19 16 -34 35 -35h7c19 0 34 12 37 31l15 71l46 -8l-12 -62v-5c0 -15 14 -27 33 -27h43v113h47v-116c0 -33 -16 -50 -49 -50h-41c-24 1 -43 10 -58 27c-15 -16 -39 -27 -63 -27c-48 0 -87 39 -87 88zM-155 956l298 64l11 -46l-301 -64zM-155 1074
l298 64l11 -45l-301 -64z" />
    <glyph glyph-name="uniFB8E.alt" horiz-adv-x="1102" 
d="M75 348h69v-165c0 -59 42 -101 103 -101h662c35 0 63 28 63 63v67c0 37 -29 68 -68 68h-461l-50 47l262 307l50 -46l-198 -233h394c77 0 140 -63 140 -140v-75c0 -77 -64 -140 -140 -140h-644c-107 0 -182 80 -182 181v167z" />
    <glyph glyph-name="uniFB8F.alt" horiz-adv-x="1152" 
d="M75 348h69v-165c0 -59 42 -101 103 -101h662c35 0 63 28 63 63v67c0 37 -29 68 -68 68h-461l-50 47l262 307l50 -46l-198 -233h394c77 0 140 -63 140 -140v-62c0 -40 33 -71 73 -71h38c8 0 14 -7 14 -15v-53c0 -9 -5 -14 -14 -14h-26c-48 0 -89 22 -116 63
c-27 -42 -63 -63 -109 -63h-644c-107 0 -182 80 -182 181v167z" />
    <glyph glyph-name="uniFB91.alt" horiz-adv-x="794" 
d="M-11 5c-2 3 -3 6 -3 10v53c0 9 5 14 14 14h552c35 0 63 28 63 63v67c0 37 -31 68 -68 68h-462l-50 47l262 307l50 -46l-198 -233h394c78 0 141 -63 141 -141v-60c0 -40 33 -72 72 -72h38c8 0 14 -7 14 -14v-54v-2c0 -5 -6 -12 -14 -12h-25c-48 0 -89 23 -116 63
c-25 -41 -64 -63 -111 -63h-542c-5 0 -8 2 -11 5z" />
    <glyph glyph-name="uniFB90.alt" horiz-adv-x="744" 
d="M-14 15v53c0 9 5 14 14 14h552c35 0 63 27 63 63v67c0 37 -31 68 -68 68h-462l-50 47l262 307l50 -46l-198 -233h394c78 0 141 -63 141 -141v-74c0 -77 -66 -140 -142 -140h-542c-8 0 -14 7 -14 15z" />
    <glyph glyph-name="uniFB92.alt" horiz-adv-x="1102" 
d="M75 181v167h69v-165c0 -59 42 -101 103 -101h662c35 0 63 28 63 63v67c0 37 -29 68 -68 68h-461l-50 47l262 307l50 -46l-198 -233h394c77 0 140 -63 140 -140v-75c0 -77 -64 -140 -140 -140h-644c-107 0 -182 80 -182 181zM349 445l202 238l38 -33l-201 -236z" />
    <glyph glyph-name="uniFB93.alt" horiz-adv-x="1152" 
d="M75 181v167h69v-165c0 -59 42 -101 103 -101h662c35 0 63 28 63 63v67c0 37 -29 68 -68 68h-461l-50 47l262 307l50 -46l-198 -233h394c77 0 140 -63 140 -140v-62c0 -40 33 -71 73 -71h38c8 0 14 -7 14 -15v-53c0 -9 -5 -14 -14 -14h-26c-48 0 -89 22 -116 63
c-27 -42 -63 -63 -109 -63h-644c-107 0 -182 80 -182 181zM351 445l200 238l38 -34l-201 -236z" />
    <glyph glyph-name="uniFB95.alt" horiz-adv-x="857" 
d="M-14 15v53c0 9 5 14 14 14h614c35 0 63 28 63 63v67c0 37 -29 68 -68 68h-461l-51 47l263 307l49 -46l-197 -233h394c77 0 140 -63 140 -141v-60c0 -40 33 -72 73 -72h38c8 0 14 -7 14 -14v-54c0 -7 -6 -14 -14 -14h-26c-47 0 -89 23 -116 63c-25 -41 -65 -63 -110 -63
h-605c-9 0 -14 7 -14 15zM54 445l202 238l37 -33l-202 -237z" />
    <glyph glyph-name="uniFB94.alt" horiz-adv-x="808" 
d="M-10 5c-3 3 -4 6 -4 9v54c0 9 5 14 14 14h615h3c32 0 59 27 59 63v67c0 37 -29 67 -68 67h-461l-51 48l263 307l49 -46l-197 -234h394c77 0 140 -62 140 -139v-75c0 -77 -64 -140 -141 -140h-605c-4 0 -7 2 -10 5zM55 444l202 239l36 -33l-202 -237z" />
    <glyph glyph-name="uni060C" unicode="&#x60c;" horiz-adv-x="277" 
d="M88 -8c-9 9 -13 20 -13 33c0 21 12 55 16 70l43 122l52 -19l-46 -133l62 -24l-32 -93c-23 8 -40 15 -55 24c-9 5 -18 11 -27 20z" />
    <glyph glyph-name="uni060D" unicode="&#x60d;" horiz-adv-x="211" 
d="M105 -110h-65l45 223h86z" />
    <glyph glyph-name="uni061B" unicode="&#x61b;" horiz-adv-x="277" 
d="M88 315c-9 9 -13 20 -14 33c0 19 10 48 17 68l43 121l51 -19l-46 -133l62 -23l-31 -93c-17 7 -37 13 -53 21c-11 7 -20 16 -29 25zM191 0h-88v109h88v-109z" />
    <glyph glyph-name="uni061F" unicode="&#x61f;" horiz-adv-x="513" 
d="M74 491c-3 16 -4 35 -4 57c0 115 67 151 200 154h8c41 0 98 -10 165 -30l-6 -67c-72 15 -124 22 -152 22c-88 0 -128 -27 -128 -87c0 -43 9 -67 35 -91l29 -30c37 -35 117 -93 117 -150c0 -13 -4 -30 -9 -43c-3 -7 -6 -15 -9 -22h-68v35c0 46 -47 89 -92 126
c-54 46 -78 75 -86 126zM247 110h82v-108h-82v108z" />
    <glyph glyph-name="uni066A" unicode="&#x66a;" horiz-adv-x="503" 
d="M343 0v120h120v-120h-120zM473 633l-393 -631l-40 26l392 632zM42 542v120h120v-120h-120z" />
    <glyph glyph-name="uni066B" unicode="&#x66b;" horiz-adv-x="158" 
d="M105 -110h-65l45 223h86z" />
    <glyph glyph-name="uni066C" unicode="&#x66c;" horiz-adv-x="158" 
d="M105 402h-65l45 223h86z" />
    <glyph glyph-name="uni066D" unicode="&#x66d;" horiz-adv-x="371" 
d="M215 495l-107 -79l-33 42l107 79l-105 77l33 44l105 -77l41 125l52 -17l-39 -126h129v-53h-131l41 -125l-52 -16z" />
    <glyph glyph-name="uniFEFF" unicode="&#xfeff;" horiz-adv-x="333" 
 />
    <glyph glyph-name="uni200C" unicode="&#x200c;" horiz-adv-x="333" 
 />
  </font>
</defs>
</svg>
